<svg xmlns="http://www.w3.org/2000/svg" fill="none" viewBox="0 0 364.8 512.08">
<path d="M139.6 2.59994C134 5.39994 130.6 8.89994 127.1 15.3999C125 19.2999 124.9 20.9999 124.4 50.8999L123.9 82.3999L115.9 85.4999C104 90.0999 87.1 99.2 76.4 106.8C62 116.9 40.6 138.8 31.2 153C16.7 174.9 6.9 198.8 2.2 223.5C0.4 233.5 0 238.9 0 256C0 278.3 1.8 291.7 6.9 307.7L9.4 315.5V387.1V458.7L11.7 463.1C14.3 467.9 20.1 472 24.7 472H27.4V489.8C27.4 507.2 27.5 507.7 29.7 509.8C33.1 513 38.6 512.8 41.3 509.4C43.2 506.9 43.4 505.4 43.4 489.4V472H48.2C54.6 472 60.1 468.7 63.1 463.1C65.4 458.8 65.4 458.2 65.4 427.8V396.9L71.2 401.3C136.1 451.2 228.7 451.2 293.7 401.3L299.4 396.9V427.8C299.4 458.2 299.4 458.8 301.7 463.1C304.3 467.9 310.1 472 314.7 472H317.4V489.8C317.4 507.2 317.5 507.7 319.7 509.8C323.1 513 328.6 512.8 331.3 509.4C333.2 506.9 333.4 505.4 333.4 489.4V472H338.2C344.6 472 350.1 468.7 353.1 463.1L355.4 458.7V387.1V315.5L357.9 307.7C363 291.8 364.8 278.3 364.8 256C364.8 240.7 364.4 233.1 363.1 226C355.7 185.8 340 155.6 311.9 127.5C303.7 119.2 294 110.7 288.4 106.8C277.7 99.2 260.8 90.0999 248.9 85.4999L240.9 82.3999L240.4 50.8999C239.9 20.9999 239.8 19.2999 237.7 15.3999C234.2 8.89994 230.8 5.39994 225.2 2.59994L220 -5.64587e-05H182.4H144.8L139.6 2.59994ZM218 17.1999C224.7 20.8999 224.4 16 224.4 117.5C224.4 219 224.7 214.1 218 217.8C215.3 219.3 211.1 219.5 182.4 219.5C153.7 219.5 149.5 219.3 146.8 217.8C140.1 214.1 140.4 219 140.4 117.5C140.4 34.8 140.6 25.4999 142 22.3999C145.3 15.4999 147.6 15.0999 183.9 15.2999C211 15.4999 215.3 15.6999 218 17.1999ZM124.4 112.5V125L118.2 128.1C78.7 147.9 50.6 185.3 41.7 229.7C39.3 241.9 39.3 270.1 41.7 282.2C47.5 311.3 60.9 336.5 81.4 357C102 377.5 127.2 390.9 156.2 396.7C169.6 399.4 197.6 399.1 211.4 396.1C268.3 384 311.6 339.8 323.1 282.2C325.5 270.1 325.5 241.9 323.1 229.7C314.2 185.3 286.1 147.9 246.7 128.1L240.4 125V112.5C240.4 103.2 240.7 99.9999 241.7 99.9999C242.3 99.9999 247.9 102.4 253.9 105.4C337.7 146 372.8 245.7 332.5 328.5C312.6 369.3 277.4 400.1 234.4 414.4C162.3 438.3 84 410.4 42 345.7C23.6 317.5 14.1 282.4 15.8 248.5C18.4 194.4 46.7 145.5 92.7 115.6C101.2 110 120.6 100.1 123.2 99.9999C124.1 99.9999 124.4 103.1 124.4 112.5ZM121.2 173C119.4 174.4 114.7 178.6 110.7 182.3C69.1 222.1 69.1 289.2 110.6 329.6C124.4 343 139.7 351.6 158.4 356.3C170.6 359.4 194.2 359.4 206.4 356.3C225.1 351.6 240.4 343 254.2 329.6C286.4 298.3 294.5 250.3 274.3 209.6C272.2 205.3 268.7 199.5 266.7 196.6C261.6 189.7 250.9 178.6 245.2 174.3L240.4 170.8V156.9V143.1L245.7 146.1C272.5 161.9 293.1 187.1 302.8 216.2C317.9 261.4 305.9 311.6 271.9 345.5C254 363.5 232.1 375.2 206.4 380.7C194.6 383.2 170.2 383.2 158.4 380.7C106.8 369.7 68.7 331.6 57.7 280C55.2 268.2 55.2 243.8 57.7 232C65.5 195.7 86.3 166.1 117.4 147.2L123.9 143.3L124.2 156.9L124.5 170.5L121.2 173ZM127.2 219.6C130.5 226 134 229.6 139.6 232.4L144.8 235H182.1C222.8 235 222.8 235 230.3 229.1C232.3 227.5 235.3 223.8 236.9 220.8C239.6 215.9 239.9 214.5 240.2 203.7L240.6 191.8L244.6 195.7C253.7 204.4 261.6 218.1 266.1 232.7C268.4 240.5 268.7 243.1 268.7 256C268.7 268.9 268.4 271.5 266.1 279.3C256.9 309.4 235.8 330.5 205.7 339.7C197.9 342 195.3 342.3 182.4 342.3C169.5 342.3 166.9 342 159.1 339.7C129 330.5 107.9 309.4 98.7 279.3C96.4 271.5 96.1 268.9 96.1 256C96.1 243.1 96.4 240.5 98.7 232.7C103.2 218.2 109.4 207.2 118.9 197.1L123.9 191.8L124.5 203.6C124.9 213.1 125.4 216.3 127.2 219.6ZM40.4 371.5C43 374.8 46.1 378.4 47.3 379.4C49.4 381.3 49.4 381.9 49.4 418C49.4 445.1 49.1 454.9 48.2 455.8C46.9 457.1 29.9 457.5 27 456.4C25.6 455.9 25.4 450.2 25.4 403.2V350.6L30.5 358.1C33.3 362.2 37.8 368.2 40.4 371.5ZM338.3 455.6C337.1 457.1 320.3 457.7 317 456.4C315.6 455.9 315.4 451.6 315.4 418.6V381.3L318 378.9C321 376.2 334.1 359 337 354.1C338.9 350.9 338.9 351.3 339.2 402.6C339.3 439.9 339.1 454.7 338.3 455.6Z" fill="currentColor"/>
<path d="M189.9 77.9C188.3 78.9 179.6 87.2 170.7 96.2C152.9 114.1 152 115.7 156.5 121.4C158.5 124 158.8 124 170.7 124H182.9L171.4 135.5C160.5 146.4 159.9 147.2 159.9 151.1C159.9 156 162.9 159 167.8 159C170.6 159 173.3 156.6 190.7 139.2C207.8 122 210.4 119 210.4 116.3C210.4 114.6 209.5 112.2 208.5 110.9C206.7 108.7 205.8 108.5 194.4 108.2L182.2 107.8L192.3 97.6C202.4 87.3 203.6 85.2 201.8 80.5C201.1 78.8 196.4 76 194.2 76C193.5 76 191.6 76.9 189.9 77.9Z" fill="currentColor"/>
</svg>