<svg xmlns="http://www.w3.org/2000/svg" fill="none" viewBox="0 0 401.87 401.07">
<path d="M3.77214 2.92634C2.17214 4.52634 0.872136 6.82634 0.872136 7.92634C0.872136 9.92634 7.37214 58.7263 8.47214 64.7263C9.07214 67.6263 8.77214 68.0263 5.57214 69.4263C3.57214 70.2263 1.57214 71.8263 0.872136 72.9263C0.0721359 74.4263 -0.127864 103.126 0.072136 176.326L0.372136 277.526L3.07214 287.126C11.6721 318.426 29.6721 342.626 56.1721 358.226C88.5721 377.226 130.372 378.926 164.572 362.526C176.672 356.726 184.472 351.426 194.072 342.126C211.172 325.926 221.772 307.026 227.172 283.526C229.072 275.126 229.272 270.326 229.772 208.026C230.372 146.926 230.572 141.126 232.272 136.526C239.072 118.026 252.172 104.826 270.072 98.4263C272.472 97.6263 277.372 96.5263 281.172 96.0263C304.372 93.1263 328.172 105.726 339.272 127.026C345.572 139.126 345.272 134.226 345.872 224.326L346.372 307.226L349.372 309.826L352.372 312.526L352.072 351.026C351.972 372.226 352.072 391.026 352.372 392.926C353.772 400.526 362.272 403.726 367.372 398.526L369.872 396.126V354.026V312.026H374.672H379.372L379.072 350.726C378.872 372.126 379.072 391.026 379.372 392.926C380.772 400.526 389.272 403.726 394.372 398.526L396.872 396.126V354.126V312.126L399.372 309.626L401.872 307.126V226.626C401.872 174.826 401.472 143.426 400.772 138.426C392.972 81.9263 344.872 40.0263 287.772 40.0263C237.372 40.0263 192.572 73.7263 178.472 122.126C174.372 136.526 173.872 145.026 173.872 207.526C173.872 255.926 173.572 267.626 172.372 272.826C167.472 293.726 150.272 310.926 128.772 316.526C120.072 318.826 103.872 318.126 95.1721 315.026C78.5721 309.226 65.1721 295.726 58.5721 278.426L56.3721 272.526L55.8721 173.526C55.3721 72.3263 55.2721 71.0263 51.6721 69.8263C50.7721 69.5263 51.1721 62.6263 53.1721 40.9263C54.6721 25.3263 55.8721 10.8263 55.8721 8.72634C55.8721 1.02634 47.2721 -2.77366 41.3721 2.32634C38.7721 4.52634 38.6721 4.92634 35.5721 36.3263L32.4721 68.0263H29.7721C27.4721 68.0263 27.0721 67.5263 26.5721 64.2263C26.2721 62.2263 24.3721 48.1263 22.2721 33.0263C18.6721 6.72634 18.3721 5.42634 15.7721 2.72634C12.0721 -0.973663 7.67214 -0.873663 3.77214 2.92634ZM303.972 59.5263C328.872 63.8263 350.972 77.7263 366.072 98.6263C371.172 105.626 378.372 120.926 381.072 130.526C383.272 138.426 383.272 139.026 383.672 216.226L383.972 294.026H373.872H363.872V218.926C363.872 134.326 364.072 136.426 356.372 120.526C348.872 104.926 338.272 94.1263 322.772 86.0263C311.572 80.2263 302.072 78.0263 288.072 78.0263C274.472 78.0263 266.772 79.6263 255.372 85.0263C235.772 94.1263 221.872 110.126 214.772 131.526C212.472 138.426 212.472 139.026 211.872 206.026C211.272 270.426 211.072 273.926 209.072 281.526C202.572 306.226 188.672 325.926 168.272 339.526C110.272 378.326 31.3721 344.426 19.3721 275.426C18.0721 268.126 17.8721 252.426 17.8721 176.426V86.0263H27.8721H37.8721V178.326C37.8721 267.426 37.9721 271.026 39.8721 278.526C48.6721 313.026 78.3721 336.026 114.172 336.026C127.972 336.026 137.472 333.826 149.872 327.826C159.072 323.426 161.372 321.726 169.372 313.626C179.172 303.826 184.472 295.026 188.972 281.526C191.272 274.526 191.272 274.026 191.972 207.026C192.572 137.226 192.572 137.926 197.072 124.026C206.072 96.2263 227.372 74.4263 256.172 63.5263C270.172 58.3263 288.272 56.7263 303.972 59.5263Z" fill="currentColor"/>
</svg>