<svg xmlns="http://www.w3.org/2000/svg" fill="none" viewBox="0 0 512 512.1">
<g clip-path="url(#clip0_684_93)">
<path d="M104.8 2.89999L101.5 5.79999L101.2 128.4L101 251H112.5H124V136.5V22H294.5H465V234V446H312.5H160V457V468H320.6H481.2L484.6 464.6L488 461.2V234.3C488 22.2 487.9 7.29999 486.3 4.99999C485.4 3.59999 483.9 1.99999 483 1.29999C481.8 0.299993 440 0.099993 294.8 -6.97374e-06H108L104.8 2.89999Z" fill="currentColor"/>
<path d="M169.8 201.9C166.9 204.5 166.5 205.4 166.5 210C166.5 214.6 166.9 215.5 169.8 218.1L173 221H294.6H416.2L419.6 217.6C422.3 214.9 423 213.4 423 210.3C423 206.5 421.1 202.7 418 200.3C416.9 199.3 388.9 199.1 294.8 199H173L169.8 201.9Z" fill="currentColor"/>
<path d="M205.8 253.9C202.9 256.5 202.5 257.4 202.5 262C202.5 266.6 202.9 267.5 205.8 270.1L209 273H294.5H380L383.2 270.1C386.1 267.5 386.5 266.6 386.5 262C386.5 257.4 386.1 256.5 383.2 253.9L380 251H294.5H209L205.8 253.9Z" fill="currentColor"/>
<path d="M89.7999 330C81.6999 336.3 85.0999 348.6 95.3999 350.5C97.1999 350.9 106.3 351 115.6 350.8C134.3 350.5 135.8 350 138.6 344.1C140.9 339.4 139.9 334.2 136 330.7L133 328H112.6C93.8999 328 92.0999 328.2 89.7999 330Z" fill="currentColor"/>
<path d="M159.8 77.9L156.5 80.8V118V155.2L159.8 158.1L163 161H294.5H426L429.2 158.1L432.5 155.2L432.8 118.5L433.1 81.9L429.6 78.4L426.2 75H294.6H163L159.8 77.9ZM410 118V139H294.5H179V118V97H294.5H410V118Z" fill="currentColor"/>
<path d="M91.4001 253.2C67.4001 258.8 44.6001 277 33.6001 299.4C26.4001 313.9 24.6001 321.7 24.7001 339.5C24.7001 352.8 25.0001 355.5 27.4001 363.3C32.4001 380.1 39.9001 392 53.2001 404.5L61.5001 412.3L62.0001 459.2L62.5001 506.2L65.8001 509.1C71.3001 514 74.9001 513.3 93.9001 504C102.8 499.6 110.5 496 110.9 496C111.4 496 119.2 499.6 128.4 504C145.4 512.1 149.3 513.2 154.4 510.9C155.7 510.3 157.6 508.3 158.6 506.5C160.1 503.6 160.3 500.9 159.8 479.9C159.4 467 159.4 446.9 159.7 435.2L160.3 414L164.4 410.9C176.4 402.1 186.5 389.7 193 375.6C198.1 364.7 200 356.6 200.7 343.8C202.1 317.3 192.7 293.4 173.9 275.4C165.9 267.8 160.2 264 149.8 259C137.3 253.1 131.6 251.9 114.4 251.6C102.6 251.4 97.7001 251.7 91.4001 253.2ZM128.5 275.6C156.5 282.2 178 309.8 178 338.9C177.9 381.3 138.1 412.8 97.1001 402.8C90.0001 401.1 78.5001 395.5 72.7001 391C47.9001 371.7 40.2001 338.3 53.9001 310.5C67.8001 282.4 97.8 268.3 128.5 275.6ZM93.7001 425.7C102.3 427.7 123 427.8 131.3 425.7L137 424.3V453.1C137 469 136.8 482 136.5 482C136.2 482 132 480 127.2 477.6C111.7 469.8 112.2 469.8 98.1001 476.4C91.4001 479.5 85.8001 482 85.5001 482C85.2001 482 85.0001 468.9 85.0001 453C85.0001 435.6 85.4001 424 85.9001 424C86.5001 424 89.9001 424.7 93.7001 425.7Z" fill="currentColor"/>
<path d="M359.2 301C329.7 308.7 313.1 340.1 323.4 368.4C334.1 397.9 366.4 411.2 395 397.7C403.8 393.6 414.6 382.8 418.7 374C428.4 353.4 424.7 330.8 409 315C395.3 301.2 377.6 296.2 359.2 301ZM381.1 323.7C388.6 326.1 397 334.4 399.5 341.9C405.4 359.9 393.3 378.2 374.4 379.8C354.8 381.3 339 362.4 344.4 343.8C347.2 333.9 353.7 327.2 363.5 323.8C369.9 321.6 374.4 321.6 381.1 323.7Z" fill="currentColor"/>
</g>
<defs>
<clipPath id="clip0_684_93">
<rect width="512" height="512" fill="white"/>
</clipPath>
</defs>
</svg>