<svg xmlns="http://www.w3.org/2000/svg" fill="none" viewBox="54.95 0.1 402.1 511.9">
<path d="M238.9 2.29999C229.7 5.39999 221.7 10.6 215.5 17.2C210 23.2 203.5 34.7 202.4 40.6L201.8 44H132C63.3 44 62.2 44 59.7 46C58.2 47.2 56.6 49.8 56 51.8C54.6 56.9 54.6 499.1 56 504.2C56.6 506.2 58.2 508.8 59.7 510C62.3 512 62.3 512 256 512C449.7 512 449.7 512 452.3 510C453.8 508.8 455.4 506.2 456 504.2C457.4 499.1 457.4 56.9 456 51.8C455.4 49.8 453.8 47.2 452.3 46C449.8 44 448.7 44 380 44H310.2L309.6 40.6C307.6 29.9 296.1 14.5 285.4 7.99999C275.6 2.09999 268 0.0999924 256 0.0999924C247.8 0.0999924 244.1 0.499992 238.9 2.29999ZM269.8 26C276.9 29.6 282.3 35.2 285.7 42.7C287.8 47.3 288.2 50 288.7 61.8C289 70.1 289.7 76.3 290.5 77.5C291.9 79.8 291.6 79.6 310.2 88.4C321.3 93.6 325 95.9 329.4 100.3C334.3 105.1 339.6 113.7 341.4 119.7L342.1 122H256H169.9L170.6 119.7C172.4 113.7 177.7 105.1 182.6 100.3C187 95.9 190.7 93.6 201.8 88.4C220.4 79.6 220.1 79.8 221.5 77.5C222.3 76.3 223 70.1 223.3 61.8C223.8 49.7 224.1 47.4 226.5 42.1C229.7 35 235.8 28.9 243.3 25.4C251.2 21.7 261.6 22 269.8 26ZM185.5 70.2C176.3 74.9 167.2 81.6 163.2 86.6L160.5 90H134.4C109.6 90 108.1 90.1 105.7 92C104.2 93.2 102.6 95.8 102 97.8C100.6 102.9 100.6 453.1 102 458.2C102.6 460.2 104.2 462.8 105.7 464C108.3 466 109 466 215.4 466H322.4L365.7 422.7C399.5 389.1 409.3 378.7 410 376C411.4 371.1 411.3 102.7 410 97.8C409.4 95.8 407.8 93.2 406.3 92C403.9 90.1 402.4 90 377.6 90H351.5L348.7 86.5C344.8 81.7 336.4 75.4 326.7 70.4L318.5 66.1L376.3 66H434V278V490H256H78V278V66H135.8L193.5 66.1L185.5 70.2ZM147.5 115.7C146.1 121.1 145.3 133.5 146.2 136.6C146.6 138.3 148.2 140.7 149.6 142.1L152.2 144.5H256H359.8L362.4 142.1C363.8 140.7 365.4 138.3 365.8 136.6C366.7 133.5 365.9 121.1 364.5 115.7L363.8 113H375.9H388V237.5V362H350.4H312.8L309.4 365.4L306 368.8V406.4V444H215H124V278.5V113H136.1H148.2L147.5 115.7ZM370 385.3C370 385.4 360.8 394.7 349.5 406L329 426.5V405.7V385H349.5C360.8 385 370 385.1 370 385.3Z" fill="currentColor"/>
<path d="M247.9 46.9C245.4 49.4 245 50.6 245 55C245 59.4 245.4 60.6 247.9 63.1C250.4 65.6 251.6 66 256 66C260.4 66 261.6 65.6 264.1 63.1C266.6 60.6 267 59.4 267 55C267 50.6 266.6 49.4 264.1 46.9C261.6 44.4 260.4 44 256 44C251.6 44 250.4 44.4 247.9 46.9Z" fill="currentColor"/>
<path d="M158.6 210C149.5 212.8 147.3 224.1 154.8 230C157.1 231.8 158.9 232 177.1 232H197V246.5V261H179.7C161.3 261 157 261.7 153.4 265.1C148.7 269.5 149.4 277.8 154.8 282C157.1 283.8 158.9 284 177.1 284H197V298.5V313H179.7C161.3 313 157 313.7 153.4 317.1C148.7 321.5 149.4 329.8 154.8 334C157.2 336 159.4 336 256.2 336H355.2L358.6 332.6C362.5 328.7 363.1 323.7 360.3 319C357 313.4 359 313.5 286.8 313.2L220 312.9V298.5V284H287.6H355.2L358.6 280.6C362.5 276.7 363.1 271.7 360.4 267.1C357 261.3 360.2 261.5 287.3 261.2L220 260.9V246.5V232H287.6H355.2L358.6 228.6C361.2 226 362 224.4 362 221.6C362 217 360.3 213.5 357.1 211.3C354.7 209.6 348.4 209.5 258 209.3C204.9 209.2 160.2 209.5 158.6 210Z" fill="currentColor"/>
</svg>