<svg xmlns="http://www.w3.org/2000/svg" fill="none" viewBox="57 0 397.88 511.5">
<path d="M108.8 51.8L57 103.6L57.2 259L57.5 414.5L60.7 421.2C64.3 428.9 71.4 437 77.8 440.7C86.1 445.6 92.9 447 108.1 447H122V460.3C122 475 123.4 482.3 127.7 490.2C131.4 496.9 139.8 504.5 147.7 508.3L154.5 511.5H289H423.5L430.1 508.3C441.4 502.8 450 492.6 453.4 480.9C454.9 475.9 455 457.6 454.8 286.5L454.5 97.5L451.3 90.8C447.7 83.1 440.6 75 434.2 71.3C425.9 66.4 419.1 65 403.9 65H390V51.7C390 37 388.6 29.7 384.3 21.8C380.6 15.1 372.2 7.49999 364.3 3.69999L357.5 0.499992L259 0.199992L160.5 -7.62194e-06L108.8 51.8ZM354.5 24.7C359.6 27.4 363.5 31.5 365.4 36.2C366.8 39.5 367 59.7 367 222.6C367 356.6 366.7 406.3 365.9 409.1C364.3 414.3 359.8 419.4 354.7 421.9C350.4 424 350.1 424 223.7 424C111.4 424 96.5 423.8 93.2 422.4C88.5 420.5 84.4 416.6 81.9 411.8C80.1 408.2 80 403.9 80 272.5V137H116.4C136.5 137 155.1 136.6 158.1 136C170.4 133.7 183.2 124.4 188.5 114C193.7 103.8 194 100.5 194 59.8V21.9L272.3 22.2C350.2 22.5 350.5 22.5 354.5 24.7ZM168.3 102C166.2 106 164.2 108.2 160.6 110.5L155.7 113.5L117.6 113.8L79.5 114.1L125 68.5L170.5 23L170.8 59.7L171 96.5L168.3 102ZM418.8 89.6C423.5 91.5 427.6 95.4 430.1 100.2C432 103.9 432 108.4 431.8 289.9L431.5 475.8L428.5 480.1C426.7 482.7 423.5 485.4 420.5 486.9L415.6 489.5H288.5H161.5L157.5 487.3C147.5 481.9 145 476.4 145 459.6V447L250.7 446.8L356.5 446.5L362 444.3C373.1 439.7 382.7 430.1 387.3 419L389.5 413.5L389.8 250.7L390 88H402.5C411.6 88 416.1 88.4 418.8 89.6Z" fill="currentColor"/>
<path d="M143.4 262.9C137.3 266.6 136.7 275.4 142.2 280.7L145.1 283.5L221.8 283.8C278 284 299.2 283.7 301.3 282.9C305.6 281.1 308 277.4 308 272.3C308 268.5 307.5 267.3 304.6 264.4L301.2 261H223.9C149.6 261 146.4 261.1 143.4 262.9Z" fill="currentColor"/>
<path d="M142.7 198C141.3 199.1 139.6 201.6 139 203.5C137.5 207.9 139.1 213.1 142.7 216C145.2 218 146.6 218 223.4 218C295.9 218 301.7 217.8 303.6 216.2C309.5 211.5 309.5 202.5 303.6 197.8C301.7 196.2 295.9 196 223.4 196C146.6 196 145.2 196 142.7 198Z" fill="currentColor"/>
<path d="M144.2 328C138.5 331.5 137.1 337.4 140.3 343.8C142.8 348.9 143.6 349 190.4 349C216.2 349 234.9 348.6 236.4 348C239.6 346.8 243 341.5 243 337.7C243 336.2 242.3 333.5 241.4 331.9C238.5 326.1 237.3 326 190.3 326C149.1 326 147.4 326.1 144.2 328Z" fill="currentColor"/>
</svg>