<svg xmlns="http://www.w3.org/2000/svg" fill="none" viewBox="0 0 503.58 512">
<path d="M100.1 56.6C38.3 97.2 13.2 114.2 11.9 116.4C10.2 119.2 10 121.8 10 147C10 172.7 10.1 174.7 12 177.8C17.3 186.5 29.6 187.5 36.7 179.8C40 176.2 41 170.6 41 154.7V140H105.9H170.8L167.4 151.2C165.6 157.4 142.5 234.4 116.3 322.2L68.5 482H39.5C12.2 482 10.3 482.1 7.2 484C3.7 486.2 0 492.8 0 497C0 501.2 3.7 507.8 7.2 510C10.5 512 11.6 512 252 512C492.7 512 493.5 512 496.8 510C503.7 505.7 505.8 494.7 500.9 487.8C496.9 482.2 495.7 482 464.3 482H435.5L390.6 331.7C365.9 249.1 342.9 172.2 339.5 160.7L333.3 140H398.1H463V154.7C463 170.6 464 176.2 467.3 179.8C474.4 187.5 486.7 186.5 492 177.8C493.9 174.7 494 172.7 494 146.9C494 119.9 494 119.2 491.8 116C490.2 113.8 463.1 95.5 404 56.6L318.5 0.499992L252.5 0.199992L186.4 -7.62939e-06L100.1 56.6ZM297 69.5V109H252H207V69.5V30H252H297V69.5ZM176 77V109H126.8H77.5L106.5 89.9C122.5 79.4 144.3 65 155 58C165.7 50.9 174.8 45.1 175.3 45C175.7 45 176 59.4 176 77ZM377.2 76.6C403.8 94 425.7 108.4 425.9 108.6C426.1 108.8 404.2 109 377.2 109H328V77C328 59.4 328.2 45 328.5 45C328.8 45 350.7 59.2 377.2 76.6ZM303.8 150.4C305.6 156.1 307 161.4 307 162.2C307 163 294.6 172.5 279.5 183.3L252 202.9L224.5 183.3C209.4 172.5 197 163 197 162.2C197 161.4 198.4 156.1 200.2 150.4L203.3 140H252H300.7L303.8 150.4ZM209.3 210.9L225.1 222.1L196.8 242.4C162.8 266.7 165.9 264.7 167 261.3C167.5 259.8 172 244.8 177 228C182 211.2 186.3 196.9 186.5 196.1C186.9 195.1 187.8 195.4 190.3 197.2C192 198.5 200.6 204.7 209.3 210.9ZM324.8 220.5C328.7 233.7 333.3 248.9 334.9 254.2C336.5 259.6 337.3 263.7 336.7 263.3C336 262.9 322.8 253.5 307.2 242.4L278.9 222.2L297.7 208.7C308 201.3 316.8 195.5 317.1 195.8C317.4 196.2 320.9 207.3 324.8 220.5ZM290.7 269.1C311.5 284 329.1 296.7 329.7 297.4C330.7 298.3 322.7 304.5 291.5 326.8L252 355.1L212.5 326.8C181.7 304.7 173.3 298.2 174.3 297.3C176.4 295.2 251.3 242 252.1 242C252.5 242 269.9 254.2 290.7 269.1ZM190.3 349.5C209.4 363.1 224.9 374.4 224.8 374.5C224.6 374.6 198.3 393.4 166.4 416.3L108.3 457.7L111.6 446.6C113.5 440.5 122.7 409.5 132.2 377.8L149.4 320.1L152.5 322.4C154.1 323.6 171.2 335.8 190.3 349.5ZM375 388.5C385.5 423.7 394.5 453.7 394.9 455.2C395.6 457.3 383.6 449.1 337.7 416.3C305.7 393.4 279.4 374.6 279.2 374.5C279.1 374.4 295.9 362.1 316.7 347.3C351.1 322.7 354.6 320.4 355.2 322.4C355.6 323.5 364.5 353.3 375 388.5ZM314.6 438.2L375.2 481.5L313.6 481.8C279.7 481.9 224.3 481.9 190.5 481.8L128.9 481.5L190.1 437.7C223.9 413.6 252 394.2 252.7 394.4C253.4 394.7 281.3 414.4 314.6 438.2Z" fill="currentColor"/>
</svg>