<svg xmlns="http://www.w3.org/2000/svg" fill="none" viewBox="0 0 368.03 511.27">
<path d="M20.9199 1.16855C11.8199 4.36855 5.31992 10.7685 1.91992 19.7685C0.119917 24.6685 0.0199167 30.1685 0.0199167 183.569C0.0199167 365.269 -0.880083 348.069 9.41992 358.269C15.7199 364.469 22.4199 367.769 29.1199 367.769H32.0199L32.2199 428.569L32.5199 489.269L34.9199 494.169C37.8199 500.169 43.4199 505.869 49.2199 508.969L53.5199 511.269H184.02H314.52L318.82 508.969C324.62 505.869 330.22 500.169 333.12 494.169L335.52 489.269L335.82 428.669L336.02 368.069L340.92 367.469C347.82 366.669 355.02 362.769 360.32 356.769C368.72 347.469 368.02 362.069 368.02 183.569C368.02 29.2685 367.92 24.6685 366.12 19.7685C363.42 12.7685 358.32 6.76855 351.92 3.26855L346.52 0.268547L185.52 0.0685471C55.6199 -0.131453 23.8199 0.0685471 20.9199 1.16855ZM344.72 17.9685C352.62 23.1685 352.02 8.76855 352.02 184.069V340.469L349.82 343.769C345.02 350.769 343.62 351.169 325.22 351.769C316.02 352.069 245.22 352.169 167.82 351.969L27.1199 351.569L23.8199 349.369C22.0199 348.169 19.5199 345.669 18.3199 343.869L16.0199 340.469V184.069C16.0199 41.7685 16.1199 27.2685 17.6199 24.1685C19.5199 20.1685 23.8199 16.7685 28.4199 15.6685C30.1199 15.2685 101.12 15.0685 186.12 15.0685L340.62 15.2685L344.72 17.9685ZM311.82 367.469L320.02 368.069V375.869V383.769H184.02H48.0199V375.769V367.769L166.22 367.469C231.32 367.369 288.82 367.169 294.02 367.069C299.22 366.869 307.22 367.069 311.82 367.469ZM320.02 441.969C320.02 483.869 319.92 484.269 317.72 488.169C316.42 490.469 313.92 492.969 311.52 494.169C307.52 496.269 307.32 496.269 184.02 496.269C60.7199 496.269 60.5199 496.269 56.5199 494.169C54.1199 492.969 51.6199 490.469 50.3199 488.169C48.1199 484.269 48.0199 483.869 48.0199 441.969V399.769H184.02H320.02V441.969Z" fill="currentColor"/>
<path d="M34.0199 33.7689C31.9199 35.8689 31.4199 40.6689 33.0199 43.7689C34.3199 46.2689 39.5199 47.8689 42.4199 46.7689C45.3199 45.6689 48.0199 42.0689 48.0199 39.1689C48.0199 37.9689 47.1199 35.8689 45.9199 34.3689C43.3199 31.0689 37.1199 30.6689 34.0199 33.7689Z" fill="currentColor"/>
<path d="M322.12 34.3681C319.42 37.7681 319.42 41.0681 322.32 44.1681C327.32 49.8681 336.02 46.7681 336.02 39.2681C336.02 34.4681 333.12 31.7681 328.12 31.7681C325.02 31.7681 323.72 32.3681 322.12 34.3681Z" fill="currentColor"/>
<path d="M39.0198 65.8686C37.4198 66.8686 35.1198 69.1686 34.0198 70.9686C32.0198 74.1686 32.0198 76.2686 32.0198 175.069C32.0198 288.369 31.5198 280.569 39.5198 285.269L43.7198 287.769H184.02H324.32L328.52 285.269C336.52 280.569 336.02 288.369 336.02 175.069C336.02 76.2686 336.02 74.1686 334.02 70.9686C332.92 69.1686 330.62 66.8686 328.82 65.7686C325.52 63.7686 324.32 63.7686 183.82 63.8686C47.7198 64.0686 42.0198 64.0686 39.0198 65.8686ZM214.32 79.7686H320.02V175.769V271.769H184.02H48.0198V175.769V79.8686L56.8198 79.4686C61.6198 79.1686 75.2198 79.1686 87.0198 79.3686C98.8198 79.5686 156.12 79.7686 214.32 79.7686Z" fill="currentColor"/>
<path d="M72.2199 113.469C70.4199 114.369 67.9199 116.469 66.7199 118.169C64.7199 121.069 64.5199 122.569 64.2199 138.769C63.9199 155.669 64.0199 156.369 66.2199 159.669C67.5199 161.569 69.8199 164.069 71.3199 165.169L74.1199 167.269H184.02H293.92L296.72 165.169C298.22 164.069 300.52 161.569 301.82 159.669C304.02 156.369 304.12 155.669 303.82 138.769C303.52 122.569 303.32 121.069 301.32 118.169C296.42 111.369 303.72 111.769 183.82 111.769C86.1199 111.769 75.2199 111.969 72.2199 113.469ZM96.0199 139.769V151.769H88.0199H80.0199V139.769V127.769H88.0199H96.0199V139.769ZM128.02 139.769V151.769H120.02H112.02V139.769V127.769H120.02H128.02V139.769ZM160.02 139.769V151.769H152.02H144.02V139.769V127.769H152.02H160.02V139.769ZM192.02 139.769V151.769H184.02H176.02V139.769V127.769H184.02H192.02V139.769ZM224.02 139.769V151.769H216.02H208.02V139.769V127.769H216.02H224.02V139.769ZM256.02 139.769V151.769H248.02H240.02V139.769V127.769H248.02H256.02V139.769ZM288.02 139.769V151.769H280.02H272.02V139.769V127.769H280.02H288.02V139.769Z" fill="currentColor"/>
<path d="M259.62 189.969C258.22 191.269 252.82 197.669 247.52 204.269C239.52 214.369 238.02 216.869 238.02 219.869C238.02 225.369 240.72 227.169 249.72 227.769L257.12 228.269L252.52 234.169C247.02 241.269 246.32 243.569 248.42 247.669C250.22 251.169 254.02 252.569 257.92 251.169C260.82 250.069 279.32 228.169 281.62 222.969C282.82 220.169 282.82 219.369 281.62 216.269C280.02 212.469 278.62 211.869 269.32 211.569L263.12 211.269L268.02 204.869C273.82 197.569 274.42 194.069 270.52 190.269C267.42 187.069 262.92 187.069 259.62 189.969Z" fill="currentColor"/>
<path d="M74.2199 194.068C71.1199 197.268 71.3199 202.168 74.6199 205.468C76.9199 207.768 77.7199 207.968 84.5199 207.568C93.0199 207.168 94.8199 206.068 95.7199 200.568C96.1199 197.568 95.8199 196.468 93.7199 194.368C91.4199 192.068 90.3199 191.768 83.7199 191.768C77.3199 191.768 76.1199 192.068 74.2199 194.068Z" fill="currentColor"/>
<path d="M114.22 194.068C111.12 197.268 111.32 202.168 114.62 205.468C116.92 207.768 117.72 207.968 124.72 207.568C131.12 207.268 132.52 206.868 134.12 204.868C136.82 201.668 136.52 197.168 133.52 194.268C131.42 192.068 130.22 191.768 123.72 191.768C117.32 191.768 116.12 192.068 114.22 194.068Z" fill="currentColor"/>
<path d="M154.52 194.269C152.92 195.769 152.02 197.869 152.02 199.769C152.02 201.669 152.92 203.769 154.52 205.269C156.62 207.469 157.82 207.769 164.02 207.769C170.22 207.769 171.42 207.469 173.52 205.269C175.12 203.769 176.02 201.669 176.02 199.769C176.02 197.869 175.12 195.769 173.52 194.269C171.42 192.069 170.22 191.769 164.02 191.769C157.82 191.769 156.62 192.069 154.52 194.269Z" fill="currentColor"/>
<path d="M34.5199 322.269C32.8199 323.869 32.0199 325.769 32.0199 328.069C32.0199 337.069 45.5199 338.669 47.5199 329.869C49.2199 321.869 40.1199 316.569 34.5199 322.269Z" fill="currentColor"/>
<path d="M324.72 320.469C322.12 321.169 319.82 326.369 320.52 329.869C322.52 339.069 336.02 337.069 336.02 327.569C336.02 321.869 331.12 318.769 324.72 320.469Z" fill="currentColor"/>
<path d="M180.52 416.968C176.92 418.868 176.02 421.068 176.02 427.368C176.02 433.268 175.92 433.568 173.02 434.768C168.82 436.468 162.62 443.768 161.22 448.568C157.52 460.668 163.42 473.668 174.72 478.468C178.92 480.168 189.12 480.168 193.32 478.468C204.62 473.668 210.52 460.668 206.82 448.568C205.42 443.768 199.22 436.468 195.02 434.768C192.12 433.568 192.02 433.268 192.02 427.768C192.02 420.468 191.52 419.068 187.92 417.268C184.62 415.468 183.22 415.468 180.52 416.968ZM189.82 451.368C191.02 452.768 192.02 454.968 192.02 456.368C192.02 459.868 187.82 463.768 184.02 463.768C180.32 463.768 176.02 459.868 176.02 456.568C176.02 453.568 178.62 449.868 181.42 448.768C184.32 447.568 187.12 448.468 189.82 451.368Z" fill="currentColor"/>
</svg>