<svg xmlns="http://www.w3.org/2000/svg" fill="none" viewBox="0 0 432.04 512">
<path d="M40.4223 1.89999C34.5223 4.59999 29.5223 9.39999 26.6223 15.2C24.3223 19.7 24.0223 21.7 24.0223 30.2V40H14.0223C-1.17769 40 0.022314 36.6 0.022314 80C0.022314 123.4 -1.17769 120 14.0223 120H24.0223V232V344H14.0223C-1.17769 344 0.022314 340.6 0.022314 384C0.022314 427.4 -1.17769 424 14.0223 424H24.0223V433.8C24.0223 442.3 24.3223 444.3 26.6223 448.8C29.5223 454.6 34.5223 459.4 40.4223 462.1C44.0223 463.7 47.4223 464 70.3223 464H96.0223V486C96.0223 506.7 96.1223 508.1 98.0223 510C99.9223 511.9 101.322 512 120.022 512C138.722 512 140.122 511.9 142.022 510C143.922 508.1 144.022 506.7 144.022 486V464H168.022H192.022V486C192.022 506.7 192.122 508.1 194.022 510C195.922 511.9 197.322 512 216.022 512C234.722 512 236.122 511.9 238.022 510C239.922 508.1 240.022 506.7 240.022 486V464H264.022H288.022V486C288.022 506.7 288.122 508.1 290.022 510C291.922 511.9 293.322 512 312.022 512C330.722 512 332.122 511.9 334.022 510C335.922 508.1 336.022 506.7 336.022 486V464H361.822C387.522 464 387.622 464 392.822 461.4C398.622 458.5 403.422 453.5 406.122 447.6C407.522 444.5 408.022 441.1 408.022 433.7V424H418.022C433.222 424 432.022 427.4 432.022 384C432.022 340.6 433.222 344 418.022 344H408.022V232V120H418.022C433.222 120 432.022 123.4 432.022 80C432.022 36.6 433.222 40 418.022 40H408.022V30.2C408.022 22.9 407.522 19.5 406.122 16.4C403.422 10.5 398.622 5.49999 392.822 2.59999L387.622 -7.62939e-06H216.122C51.4223 -7.62939e-06 44.3223 0.0999924 40.4223 1.89999ZM385.322 18.3C386.822 19.2 388.822 21.2 389.722 22.7C391.422 25.3 391.522 36.3 391.522 232C391.522 427.7 391.422 438.7 389.722 441.3C388.822 442.8 386.822 444.8 385.322 445.7C382.722 447.4 373.522 447.5 216.022 447.5C58.5223 447.5 49.3223 447.4 46.7223 445.7C45.2223 444.8 43.2223 442.8 42.3223 441.3C40.6223 438.7 40.5223 427.6 40.2223 235.5C40.0223 123.9 40.2223 30.6 40.5223 28.3C41.2223 23.1 45.0223 18.3 49.3223 17.1C51.2223 16.5 119.122 16.2 217.522 16.3C373.422 16.5 382.722 16.6 385.322 18.3ZM24.0223 80V104H20.0223H16.0223V80V56H20.0223H24.0223V80ZM416.022 80V104H412.022H408.022V80V56H412.022H416.022V80ZM24.0223 384V408H20.0223H16.0223V384V360H20.0223H24.0223V384ZM416.022 384V408H412.022H408.022V384V360H412.022H416.022V384ZM128.022 480V496H120.022H112.022V480V464H120.022H128.022V480ZM224.022 480V496H216.022H208.022V480V464H216.022H224.022V480ZM320.022 480V496H312.022H304.022V480V464H312.022H320.022V480Z" fill="currentColor"/>
<path d="M66.0223 42C64.0223 44 64.0223 45.3 64.0223 232C64.0223 418.7 64.0223 420 66.0223 422C68.0223 424 69.3223 424 216.022 424C362.722 424 364.022 424 366.022 422C368.022 420 368.022 418.7 368.022 346V272H374.022C384.522 272 384.022 274.1 384.022 232C384.022 189.9 384.522 192 374.022 192H368.022V118C368.022 45.3 368.022 44 366.022 42C364.022 40 362.722 40 216.022 40C69.3223 40 68.0223 40 66.0223 42ZM352.022 124V192H346.022C335.522 192 336.022 189.9 336.022 232C336.022 274.1 335.522 272 346.022 272H352.022V340V408H216.022H80.0223V232V56H216.022H352.022V124ZM368.022 232V256H360.022H352.022V232V208H360.022H368.022V232Z" fill="currentColor"/>
<path d="M201.822 113.8C168.022 147.5 168.022 147.5 168.022 151.8C168.022 158.8 170.122 160 182.022 160H192.022V190C192.022 218.7 192.122 220.1 194.022 222C196.622 224.6 203.022 224.7 205.822 222.2C206.922 221.3 220.422 206 235.922 188.2C262.622 157.6 264.022 155.8 264.022 152C264.022 145.4 261.722 144 251.022 144C243.122 144 242.022 143.8 242.022 142.2C242.022 141.3 243.422 129.9 245.022 117C246.622 104.1 248.022 91.3995 248.022 88.6995C248.022 82.4995 245.622 79.9995 239.822 79.9995C235.522 79.9995 235.522 79.9995 201.822 113.8ZM226.022 130.6C222.722 156.9 223.122 159 231.922 160L237.022 160.5L222.822 176.9L208.522 193.2L208.022 170C207.422 144.1 207.422 144 200.122 144H196.522L212.022 128.5C220.522 120 227.622 113.4 227.822 113.9C228.022 114.4 227.222 121.9 226.022 130.6Z" fill="currentColor"/>
<path d="M154.022 258C152.122 259.9 152.022 261.3 152.022 288C152.022 314.7 152.122 316.1 154.022 318C156.022 320 157.322 320 216.022 320C274.722 320 276.022 320 278.022 318C279.922 316.1 280.022 314.7 280.022 288C280.022 261.3 279.922 259.9 278.022 258C276.022 256 274.722 256 216.022 256C157.322 256 156.022 256 154.022 258ZM264.022 288V304H216.022H168.022V288V272H216.022H264.022V288Z" fill="currentColor"/>
<path d="M138.022 338C136.722 339.3 136.022 341.3 136.022 344C136.022 346.7 136.722 348.7 138.022 350C140.022 352 141.322 352 216.022 352C290.722 352 292.022 352 294.022 350C295.322 348.7 296.022 346.7 296.022 344C296.022 341.3 295.322 339.3 294.022 338C292.022 336 290.722 336 216.022 336C141.322 336 140.022 336 138.022 338Z" fill="currentColor"/>
<path d="M170.022 370C168.722 371.3 168.022 373.3 168.022 376C168.022 378.7 168.722 380.7 170.022 382C171.922 383.9 173.322 384 216.022 384C258.722 384 260.122 383.9 262.022 382C263.322 380.7 264.022 378.7 264.022 376C264.022 373.3 263.322 371.3 262.022 370C260.122 368.1 258.722 368 216.022 368C173.322 368 171.922 368.1 170.022 370Z" fill="currentColor"/>
</svg>