<svg xmlns="http://www.w3.org/2000/svg" fill="none" viewBox="0 0 340.1 340">
<path d="M162.851 2.9L159.551 5.8L159.251 108.9L159.051 212H84.5505C4.35054 212 5.35054 211.9 1.65054 217.1C-0.949459 220.9 -0.449459 226.4 2.95054 230.2L5.85054 233.5H170.051H334.251L337.151 230.2C340.551 226.4 341.051 220.9 338.451 217.1C334.751 211.9 335.751 212 255.551 212H181.051L180.851 108.9L180.551 5.8L177.251 2.9C174.851 0.699997 173.051 -3.47942e-06 170.051 -3.47942e-06C167.051 -3.47942e-06 165.251 0.699997 162.851 2.9Z" fill="currentColor"/>
<path d="M63.3505 249.5C59.4505 251.2 58.0505 253.7 58.0505 259.2C58.0505 264 60.3505 267.4 64.7505 269.1C68.0505 270.3 272.051 270.3 275.351 269.1C279.751 267.4 282.051 264 282.051 259.2C282.051 253.6 280.651 251.2 276.551 249.4C271.551 247.3 68.1505 247.4 63.3505 249.5Z" fill="currentColor"/>
<path d="M107.951 284.9C103.651 289.2 103.851 295 108.451 299.6L111.851 303H170.051H228.251L231.651 299.6C236.251 295 236.451 289.2 232.151 284.9L229.251 282H170.051H110.851L107.951 284.9Z" fill="currentColor"/>
<path d="M150.951 321.9C148.651 324.2 148.051 325.7 148.051 329C148.051 338.4 151.251 340 170.051 340C188.851 340 192.051 338.4 192.051 329C192.051 325.7 191.451 324.2 189.151 321.9L186.251 319H170.051H153.851L150.951 321.9Z" fill="currentColor"/>
</svg>