<svg xmlns="http://www.w3.org/2000/svg" fill="none" viewBox="0 0 376 504">
<path d="M3.4 3.39999L0 6.79999V236V465.2L3.4 468.6L6.8 472H59.4H112V484.6V497.2L115.4 500.6C118.4 503.6 119.4 504 124 504C128.6 504 129.6 503.6 132.6 500.6L136 497.2V484.6V472H156H176V484.6V497.2L179.4 500.6C182.4 503.6 183.4 504 188 504C192.6 504 193.6 503.6 196.6 500.6L200 497.2V484.6V472H220H240V484.6V497.2L243.4 500.6C246.4 503.6 247.4 504 252 504C256.6 504 257.6 503.6 260.6 500.6L264 497.2V484.6V472H316.6H369.2L372.6 468.6L376 465.2V236V6.79999L372.6 3.39999L369.2 -7.51019e-06H188H6.8L3.4 3.39999ZM352 236V448H188H24V236V24H188H352V236Z" fill="currentColor"/>
<path d="M67.4 67.4L64 70.8V124V177.2L67.4 180.6L70.8 184H188H305.2L308.6 180.6L312 177.2V124V70.8L308.6 67.4L305.2 64H188H70.8L67.4 67.4ZM288 124V160H188H88V124V88H188H288V124Z" fill="currentColor"/>
<path d="M180.6 242.1C178.8 243.5 172.2 255.7 160.9 278.1C141.6 316.9 141.1 318.3 147.4 324.6L150.8 328H175.4H200L188 352C177.9 372.2 176 376.7 176 380.6C176 384.5 176.5 385.7 179.4 388.6C182.4 391.6 183.5 392 187.8 392C191.3 392 193.5 391.4 195.4 389.9C197.2 388.5 203.8 376.3 215.1 353.9C234.4 315.1 234.9 313.7 228.6 307.4L225.2 304H200.6H176L188 280C198.1 259.8 200 255.3 200 251.4C200 247.5 199.5 246.3 196.6 243.4C193.6 240.4 192.5 240 188.2 240C184.7 240 182.5 240.6 180.6 242.1Z" fill="currentColor"/>
<path d="M67.4 259.4C64.4 262.4 64 263.4 64 268C64 272.6 64.4 273.6 67.4 276.6C70.4 279.6 71.4 280 76 280C83.5 280 88 275.5 88 268C88 263.4 87.6 262.4 84.6 259.4C81.6 256.4 80.6 256 76 256C71.4 256 70.4 256.4 67.4 259.4Z" fill="currentColor"/>
</svg>