<svg xmlns="http://www.w3.org/2000/svg" fill="none" viewBox="0 0 512 422">
<path d="M143.4 1.19999C141.1 2.29999 139 5.99999 139 8.89999C139 11.8 142.9 16 145.6 16H148V31.5C148 46.4 147.9 47 146 47C142.8 47 139 51.4 139 55C139 58.6 142.8 63 146 63C147.9 63 148 63.6 148 75.8V88.6L144.7 89.8C141.3 91 139 94.4 139 97.9C139 100.8 142.9 105 145.6 105H148V118.5V132H145.6C142.9 132 139 136.2 139 139.1C139 142.7 141.3 145.9 144.6 147L148 148.2V166.1V184L133.8 184.2C125.9 184.4 107.2 184.5 92.2 184.5H64.8L62.9 186.9C61.1 189.1 61 191.4 61 242.6V296H40C16.8 296 13.6 296.7 12.4 301.7C12 303.1 11.9 323.1 12.2 345.9C12.5 368.8 12.6 391.7 12.3 396.8L11.7 406H7.9C2.7 406 0 408.7 0 413.9C0 417 0.6 418.3 2.6 419.9L5.3 422H256H506.7L509.4 419.9C511.4 418.3 512 417 512 413.9C512 408.5 509.3 406 503.5 406C501 406 499 405.9 499 405.7C499 405.5 497.2 391.7 495 375C491.4 347.5 491.2 344.5 492.6 343.7C496 341.8 498 338.9 498 335.9C498 331.6 496.5 329.3 492.2 327.1L488.5 325.2L485.1 298.9C482.7 280.6 482 272.5 482.8 272.2C485.8 271.2 490.4 267.2 491.2 264.9C492.6 260.7 490.6 257.4 484.6 254C478.2 250.4 479 252.6 475.5 225.5C474.1 214.5 472.8 204.1 472.5 202.3C472 199.3 472.2 198.9 476.9 196.6C488.2 190.8 487.8 184.6 475.7 176.9L468.5 172.4L465.6 149.4C464 136.8 462.5 126 462.3 125.3C462 124.6 464.1 122.7 466.9 121C472.6 117.5 474 115.5 474 111.1C474 108.7 472.6 106.9 466.2 101.1L458.4 94L455.6 72.8C454.1 61.1 452.6 49.8 452.3 47.7L451.7 44H462.4H473V51.5C473 58.3 472.8 59 471.1 59C470 59 467.9 60.1 466.4 61.4C462.7 64.5 462.5 70.4 465.9 73.1C467.9 74.7 470 75 481.1 75C492.7 75 494.2 74.8 496 73C498.6 70.4 498.7 64 496.3 61.7C495.3 60.9 493.3 59.8 491.8 59.5L489 58.8V46.9C489 40.4 488.5 34 487.9 32.7C486.1 28.6 483 28 466 28C447.6 28 449.9 29.8 447.9 14.2C446 -0.500006 448.7 0.599994 413.3 0.199994C396.9 -6.28829e-06 382 0.199994 380.2 0.499994C375.7 1.29999 374.3 4.09999 373 14.5C371.2 29.7 373.4 28 354.9 28C338.3 28 334 28.9 332.6 32.5C332.3 33.4 332 39.8 332 46.6C332 58 331.9 59 330.1 59C329.1 59 327.1 59.9 325.6 61.1C322.3 63.7 321.9 69.9 325 73C326.8 74.8 328.3 75 339.6 75C346.5 75 353 74.6 354 74C356.5 72.7 358.1 67.5 357 64.6C356 61.8 352.3 59 349.8 59C348.2 59 348 58 348 51.5V44H358.6H369.2L368.7 47.2C368.4 49 366.9 60.3 365.4 72.3L362.6 94.1L354.8 101.1C348.4 106.9 347 108.7 347 111.1C347 115.5 348.4 117.4 353.8 120.8C358.3 123.6 358.7 124.1 358.3 127.1C357.3 135.6 360 134.7 332.8 135.2C311.4 135.6 307.7 135.9 301.9 137.8C288.7 142.1 277 152.2 271 164.3C266 174.6 265 181.6 265 209.7V235H261.5H258V212.6C258 200.3 257.7 189.4 257.4 188.5C255.9 184.7 251.9 184 231 184H211V166V148L213.4 147.4C219.4 145.9 221.6 137.6 217.1 133.9C215.8 132.8 213.9 132 212.9 132C211.1 132 211 131.1 211 118.5C211 105.9 211.1 105 212.9 105C219.3 105 221.8 95.8 216.6 91.4C215.1 90.1 213.2 89 212.4 89C211.3 89 211 86.7 211 76.2V63.4L214.4 62.2C221.4 59.6 221.1 48.8 214 47.3L211 46.7V31.4C211 17 211.1 16 212.9 16C219.3 16 221.8 6.79999 216.6 2.39999L213.9 -6.28829e-06L179.7 0.0999937C158.3 0.0999937 144.7 0.499994 143.4 1.19999ZM195 31.5V47H179.5H164V31.5V16H179.5H195V31.5ZM432.4 19.1C432.7 20.8 433 23.5 433 25.1V28H410.1H387.3L387.6 25.7C387.8 24.5 388.2 21.8 388.5 19.7L389.1 16H410.4H431.8L432.4 19.1ZM420.9 44.4C414.1 50.5 410.7 52.9 409.6 52.3C408.9 51.8 406.4 49.8 404 47.7L399.6 44H410.5C416.5 44 421.1 44.2 420.9 44.4ZM397 64C397 65 381.8 78.1 381.3 77.6C381.1 77.4 381.7 71.6 382.6 64.6L384.3 52.1L390.6 57.7C394.1 60.7 397 63.6 397 64ZM438.5 65.4C439.3 72 439.8 77.5 439.7 77.7C439.2 78.1 424 65 424 64.2C423.9 63.2 436.5 52 436.7 52.8C436.8 53.2 437.6 58.9 438.5 65.4ZM195 76V89H179.5H164V76V63H179.5H195V76ZM426.7 88.6C435.4 96.2 442.8 102.8 443.1 103.4C443.5 104 444 107 444.3 110L444.9 115.5L427.7 126L410.4 136.6L393.2 126L376 115.5L376.6 110C376.9 107 377.7 103.7 378.4 102.8C379.5 101.2 409.8 75 410.5 75C410.7 75 418 81.1 426.7 88.6ZM195 118.5V132H179.5H164V118.5V105H179.5H195V118.5ZM449.1 147.2C450.1 154.5 450.7 160.6 450.5 160.8C450.4 161 444.8 157.8 438.1 153.7L426 146.2L436.2 139.8C441.9 136.2 446.7 133.5 446.9 133.7C447.1 133.8 448.1 140 449.1 147.2ZM384.6 139.7C389.8 142.9 394 145.8 394 146.2C394 147 370.9 161.3 370.4 160.8C369.7 160 373.5 134 374.4 134C374.9 134 379.5 136.6 384.6 139.7ZM195 166V184H179.5H164V166V148H179.5H195V166ZM355 151.9C355 153.4 353 168.3 352.5 170.7C352.2 172.1 349.5 174.4 345 177.1C337.6 181.4 336 183.3 336 187.2C336 190.8 338.6 193.8 344.1 196.5C348.9 199 349 199.1 348.5 202.8C348.1 204.8 346.6 216.4 345 228.5C342.7 245.9 341.8 250.7 340.5 251.5C329.3 258.2 327.5 260.5 329.9 265.6C330.8 267.6 335.4 271.3 338.4 272.3C338.9 272.5 337.7 284.4 335.9 298.9L332.5 325.2L329.5 326.7C324.2 329.4 323 331 323 335.6C323 339.7 324.2 341.3 329.7 344.5C329.8 344.5 328.2 358.1 326 374.6C323.8 391 322 404.8 322 405.2C322 405.7 319.1 406 315.5 406H309L308.8 356.2C308.6 328.9 308.7 291.6 308.9 273.5C309.4 232.5 310.7 235.7 293.1 235.2L281 234.8V210.1C281 182.6 281.8 177.1 287.2 168.7C292.6 160.3 301.9 153.9 311.4 152C317.2 150.9 355 150.8 355 151.9ZM432.8 169.5C453.7 182.4 453.8 182.5 454.2 186.3L454.6 190.1L433.1 201.7C421.3 208.1 411.1 213.3 410.5 213.3C409.9 213.3 399.6 208.1 387.8 201.6L366.1 189.9L366.7 186.2C367 184.2 367.8 182.2 368.4 181.8C369 181.4 378.5 175.5 389.5 168.6C400.5 161.7 410 156.2 410.6 156.3C411.2 156.4 421.2 162.3 432.8 169.5ZM186.3 200H242V303V406H225.5H209V381.5C209 355.2 208.7 353.2 203.6 346.5C202.3 344.8 198.8 342.1 195.9 340.5L190.5 337.5H159.5H128.5L123.1 340.5C117.4 343.7 114.1 347.3 111.3 353.6C109.8 356.9 109.5 361.4 109.2 381.8L108.8 406H92.9H77V303V200.1L86.8 199.7C92.1 199.5 104.2 199.4 113.5 199.6C122.9 199.8 155.6 200 186.3 200ZM378.5 215.1C385.7 219 391.8 222.5 392.2 222.8C392.6 223.2 385.6 227.4 376.7 232.2C367.8 237 360.3 240.5 360.2 239.9C359.8 239 362.5 216.6 363.6 210.7C363.9 209.2 364.5 208 364.8 208C365.2 208 371.4 211.2 378.5 215.1ZM457.4 211.2C458.5 217.8 461.2 240.2 460.8 240.5C460.6 240.7 453.2 237 444.3 232.2C435.4 227.4 428.4 223.2 428.8 222.8C429.8 221.9 455.4 208 456.1 208C456.5 208 457 209.5 457.4 211.2ZM439.3 248C452.9 255.3 463.9 261.8 463.7 262.3C463.4 263.4 412.4 288 410.5 288C408.2 288 357.5 263.3 357.5 262.2C357.5 261.5 369.4 254.5 384 246.6C407.2 234 410.7 232.4 412.5 233.4C413.6 234.1 425.7 240.7 439.3 248ZM293.2 270C293.4 280.5 293.4 315.3 293.2 347.5L292.8 406H275.4H258V328.5V251H275.4H292.8L293.2 270ZM373.6 289L391.5 297.5L371.1 307.2C359.9 312.6 350.5 316.8 350.3 316.6C349.6 315.9 354.4 280 355.1 280.2C355.5 280.4 363.8 284.3 373.6 289ZM468.9 298.8C470.1 308.4 471 316.4 470.7 316.6C470.5 316.8 461.1 312.6 449.9 307.3L429.5 297.5L447.5 288.9C457.4 284.1 465.8 280.5 466.1 280.9C466.5 281.2 467.7 289.3 468.9 298.8ZM468.2 333.9L471.8 335.6L441.2 350.9L410.5 366.2L379.8 350.9L349.2 335.5L379.8 321L410.5 306.4L437.5 319.3C452.4 326.4 466.2 333 468.2 333.9ZM61 359V406H44.6H28.3L27.7 396.1C27.4 390.7 27.4 369.5 27.8 349.1L28.3 312H44.7H61V359ZM391.9 375.6C392.1 375.7 380.4 381.8 366 389C351.6 396.2 339.5 401.9 339.3 401.6C338.8 401.2 342.4 371.1 344.7 355.8L345.2 352.1L368.4 363.7C381.1 370 391.7 375.4 391.9 375.6ZM479 376.8C480.8 390.2 482 401.4 481.7 401.6C481.4 401.9 469.4 396.2 454.9 388.9L428.5 375.8L452 364C464.9 357.5 475.6 352.3 475.7 352.4C475.8 352.5 477.3 363.5 479 376.8ZM186.3 353.9C187.7 354.5 189.8 355.9 190.9 357.1C192.9 359.3 193 360.4 193 382.7V406H158.9H124.9L125.2 383.2C125.5 358.3 125.8 357 131.5 354.4C135.1 352.8 182.3 352.4 186.3 353.9ZM432 395.5L452.5 405.9H410.5H368.5L389 395.5C400.3 389.8 410 385.1 410.5 385.1C411.1 385.1 420.7 389.8 432 395.5Z" fill="currentColor"/>
<path d="M166.4 214.3C163.6 215.8 143.2 239.7 141.9 242.8C140 247.6 142.8 252.1 148.7 253.7L151.9 254.5L146.4 260.8C142.1 265.8 141 267.9 141 270.6C141 275.6 144 278.2 149.3 277.8C153.3 277.5 153.9 277 165.7 263.2C176 251.2 178 248.4 178 245.6C178 241.6 174.7 238.3 170.3 237.8L167.1 237.5L172.1 231.5C174.8 228.2 177.3 224.5 177.6 223.2C178.6 219.6 177.2 216.1 174 214.5C170.5 212.7 169.2 212.7 166.4 214.3Z" fill="currentColor"/>
</svg>