<svg xmlns="http://www.w3.org/2000/svg" fill="none" viewBox="0 0 469.34 469.57">
<path d="M214 0.309956C165.1 5.40996 122.5 22.81 85.2 53.01L74.5 61.71V55.11C74.5 49.21 74.2 48.31 71.6 45.61C69.1 43.21 67.8 42.71 63.8 42.71C59.6 42.71 58.4 43.21 55.9 45.81L53 48.81V74.81V100.91L56.3 103.81C60.8 107.91 63.8 107.61 89.8 101.21C109.7 96.21 112.3 95.31 114.8 92.71C118.7 88.31 118.7 81.71 114.6 77.61C112.1 75.21 110.8 74.71 106.8 74.71C104.2 74.71 99.6 75.41 96.6 76.21C90.2 77.91 90.1 78.11 102.5 68.11C126.3 49.11 153.2 35.91 183.5 28.21C245 12.81 310.1 26.01 362.2 64.51C373.6 72.91 398.3 97.81 405.9 108.51C427.1 138.41 439.5 168.61 445.2 203.81C447.3 217.01 447.5 249.31 445.6 262.71C443.8 275.71 439.4 292.91 434.6 306.71C430.1 319.51 429.7 322.11 432.2 325.71C434.9 329.71 436.7 330.61 441.6 330.71C448.4 330.71 450.6 328.51 454.8 317.01C465.8 287.31 470.2 259.81 469.2 227.21C467.3 165.31 442.1 108.41 397.9 65.71C362.4 31.51 320.3 10.61 269.5 2.10996C260.3 0.609956 223 -0.590044 214 0.309956Z" fill="currentColor"/>
<path d="M228.1 97.8097C224.8 100.41 146.5 256.31 146.5 260.21C146.5 261.71 147.2 264.21 148.1 265.81C151 271.41 153 271.71 190 271.71H223.5V319.31V366.91L226.9 370.31C231.1 374.51 236.6 375.01 240.9 371.61C244.2 369.01 322.5 213.11 322.5 209.21C322.5 207.71 321.8 205.21 320.9 203.61C318 198.01 316 197.71 279 197.71H245.5V150.11V102.51L242.1 99.1097C237.9 94.9097 232.4 94.4097 228.1 97.8097ZM225.7 215.91C226.8 217.51 229.1 219.01 231.2 219.61C233.4 220.31 246.9 220.71 263.8 220.71C279.6 220.71 292.5 221.01 292.4 221.41C292.4 221.91 281.9 243.11 269 268.71L245.6 315.21V286.21C245.5 259.31 245.4 257.01 243.5 254.01C242.2 251.91 240.4 250.51 237.8 249.81C235.5 249.11 222.3 248.71 205.3 248.71C189.4 248.71 176.5 248.51 176.5 248.21C176.5 247.91 187 226.81 199.8 201.21L223 154.71L223.5 184.01C223.9 209.61 224.2 213.61 225.7 215.91Z" fill="currentColor"/>
<path d="M20.1 140.91C15.2 145.31 6.8 171.71 2.3 196.41C0.3 207.51 0 212.51 0 234.71C0 256.91 0.3 261.91 2.3 273.01C8.1 305.51 19.3 334.81 35.9 361.11C53.4 388.81 82 417.11 110.2 434.61C136 450.61 168.1 462.41 198.5 467.21C213.1 469.51 242.3 470.31 257 468.81C303.8 464.01 347 446.11 383.8 416.41L394.5 407.71V414.31C394.5 420.21 394.8 421.11 397.4 423.81C399.9 426.21 401.2 426.71 405.2 426.71C409.4 426.71 410.6 426.21 413.1 423.61L416 420.61V394.61V368.51L412.7 365.61C410.3 363.41 408.5 362.71 405.4 362.71C401.6 362.71 363.9 371.61 358.2 373.91C350.4 377.01 349.1 387.51 355.9 392.91C358.5 395.11 365.1 395.21 372.4 393.21C378.8 391.51 378.9 391.31 366.5 401.31C302.7 452.31 214.7 461.81 140.8 425.61C118.2 414.51 98.9 400.21 79.9 380.41C32.3 330.81 12.1 260.31 26 192.31C27.4 185.71 30.8 173.61 33.6 165.31C39.3 148.41 39.4 145.51 34.4 141.31C30.3 137.91 23.7 137.71 20.1 140.91Z" fill="currentColor"/>
</svg>