<svg xmlns="http://www.w3.org/2000/svg" fill="none" viewBox="0 0 495.68 463.5">
<path d="M2 2.00001C0.7 3.30001 0 5.30001 0 8.00001C0 11.4 0.9 12.9 6.2 19.2C48.4 68.6 134.1 126.9 210.9 158.5L220.2 162.4L211.9 164.6C188.1 170.9 167.3 183.5 149.4 202.2C126.1 226.7 113.6 256.2 112.3 290.1C111.6 306.3 113 319.2 116.9 333.1L119.7 342.9L115.1 339C112.6 336.9 101.2 326.2 89.9 315.3C61.1 287.7 39.5 264.8 21.5 243C17.2 237.8 13.2 233.2 12.6 232.8C12 232.4 9.8 232 7.7 232C2.7 232 0 234.8 0 239.9C0 243.3 1 245.1 7.2 252.7C40 293.1 103.7 354.8 156.4 397.4C174.8 412.3 187.4 419.5 205.5 425.6C220 430.4 223.9 430.8 227.3 427.9C231.2 424.5 231.8 420 228.8 416.6C227.1 414.6 223.9 413.2 216 410.9C143.3 390.1 107.8 308.9 142.2 241.8C158.9 209.1 188.8 186.4 225 179C234 177.1 237.8 176.9 251.5 177.3C269.5 177.9 279.9 180 295.3 186.4C305 190.4 307.8 190.4 311 186.3C313.2 183.5 313.6 179.9 312 176.9C310 173.3 293.7 166.5 278 162.9C238.5 153.8 182.1 129.2 135 100.6C109.4 85.1 81.7 65.4 59.5 46.9C49.6 38.7 24.3 14 16.3 4.70001C12.6 0.500013 11.7 1.34067e-05 8.1 1.34067e-05C5.3 1.34067e-05 3.3 0.700013 2 2.00001Z" fill="currentColor"/>
<path d="M351 194C317.4 196.8 282.5 198.9 258.5 199.6C245.6 199.9 233.2 200.8 228.5 201.6C199.7 207.1 173 228.2 160.4 255.5C151.3 275.2 149.2 300.6 155 321.7C162.2 348.3 179.2 368.5 216.3 394.3C236.1 408.1 258.1 421.8 262.6 423C269 424.8 280.6 423.9 286.2 421.2C292.2 418.2 298.2 412.2 301.2 406.2C303.9 400.6 304.8 388.8 303 382.6C300.1 372.5 290.4 363.2 280.5 360.9C270.3 358.6 252.6 348.8 235 335.7C229.8 331.8 218.6 321.7 210.1 313.1C196.1 299 194.4 297.6 191.2 297.6C187 297.6 183 301.7 183 306C183 309.6 188.8 316.6 203.1 330.6C217.3 344.3 228.8 353.2 246.7 364.4L250.9 367L247.9 370.2C244.3 374.2 241.1 380.6 240.3 385.4C240 387.4 239.5 389 239.3 389C238.5 389 226.6 380.8 215.4 372.4C184.9 349.9 171.8 330.4 169.2 303.8C165.8 270.3 183.1 239.7 213.8 224.6C224.7 219.2 234.2 217 246.1 216.9C259.1 216.9 297.7 215 325.9 213C341 211.9 353.5 211.2 353.7 211.4C353.9 211.6 353.6 212.9 353 214.4C351.5 218.4 351.8 230.1 353.5 235C354.3 237.3 355 239.4 355 239.6C355 239.8 349.8 240 343.5 240C333.3 240 331.8 240.2 330 242C327.3 244.7 327.3 251.3 330 254C332 256 333 256.1 362.8 255.8C392.6 255.5 393.6 255.4 398.2 253.2C404.2 250.2 410.2 244.2 413.2 238.2C415.1 234.3 415.5 231.9 415.5 224C415.5 212.9 413.6 207.8 406.9 201.1C404.7 198.9 400.8 196.1 398.2 194.8C392 191.8 379.9 191.6 351 194ZM391.8 211C401.4 216.9 401.4 231.1 391.8 237C387.5 239.6 380.5 239.6 376.2 237C363.2 229.1 368.8 209 384 209C386.7 209 389.8 209.8 391.8 211ZM279.8 379C292.8 386.9 287.2 407 272 407C263.5 407 257 400.5 257 392C257 383.5 263.5 377 272 377C274.7 377 277.8 377.8 279.8 379Z" fill="currentColor"/>
<path d="M226 234C224.7 235.3 224 237.3 224 240C224 247 226.2 248.1 247.5 251.6C252.5 252.4 257.5 253.3 258.6 253.5L260.8 254L258.6 258.2C257.3 261 256.4 265 256.2 269.7C255.9 273.7 255.6 277 255.4 277C254.6 277 222.7 264.4 212.8 260.1C202 255.5 197 255 194 258C191.7 260.3 191.3 266.6 193.3 269.3C195.4 272.2 242.6 291.2 270.8 300.5C280.8 303.8 283 304.2 289.8 303.8C298.9 303.4 304.9 300.9 310.9 294.9C317.6 288.2 319.5 283.1 319.5 272C319.5 260.9 317.6 255.8 310.9 249.1C303.5 241.7 299.2 240.5 273.5 238C266.9 237.4 255.6 235.8 248.3 234.4C232 231.4 228.6 231.4 226 234ZM295.8 259C308.8 266.9 303.2 287 288 287C272.8 287 267.2 266.9 280.2 259C284.5 256.4 291.5 256.4 295.8 259Z" fill="currentColor"/>
<path d="M418 250C415.3 252.7 415.3 259.3 418 262C419.6 263.6 421.3 264 427.5 264C431.6 264 435 264.1 435 264.3C435 264.5 434.3 266.8 433.4 269.4C432.3 272.6 431.9 276.5 432.2 282.1L432.5 290.1L430 289.6C428.6 289.3 424.1 288.7 419.9 288.4C413 287.8 412.1 287.9 410.1 289.9C407.8 292.2 407.3 297.7 409 301C410.4 303.5 413.6 304.3 439 308.6C463.4 312.7 470.7 312.8 478.2 309.2C484.2 306.3 490.2 300.2 493.2 294.2C496.5 287.4 496.5 272.6 493.2 265.8C490.2 259.8 484.2 253.8 478.2 250.8C473.7 248.6 472.4 248.5 446.8 248.2C421 247.9 420 248 418 250ZM471.8 267C484.8 274.9 479.2 295 464 295C448.8 295 443.2 274.9 456.2 267C460.5 264.4 467.5 264.4 471.8 267Z" fill="currentColor"/>
<path d="M330 290C328.7 291.3 328 293.3 328 295.6C328 302.4 329.8 303.7 343 306.1C346.6 306.8 349.6 307.4 349.8 307.5C349.9 307.6 348.8 310.1 347.3 313.1C344.8 317.8 344.5 319.5 344.5 328.2C344.5 333.6 344.5 338 344.4 338C344.3 338 338.1 336.2 330.5 334C309.6 327.9 294 322.7 267.1 312.9C253.7 308 241.2 304 239.3 304C234.8 304 232 307 232 311.8C232 313.9 232.6 316.4 233.3 317.3C235.5 320.4 292.4 340.8 326 350.5C369.5 363.1 386.6 363.2 398.9 350.9C404.7 345 407.4 338.9 407.8 330.1C408.1 326 407.7 320.9 407 318.6C404.2 308.8 394.5 299.3 385 297C373.1 294.2 339.1 288 335.8 288C333.3 288 331.3 288.7 330 290ZM383.8 315C396.8 322.9 391.2 343 376 343C360.8 343 355.2 322.9 368.2 315C372.5 312.4 379.5 312.4 383.8 315Z" fill="currentColor"/>
<path d="M418 338C415.3 340.7 415.3 347.3 417.9 349.9C419 351 422.3 352.4 425.4 353.1C428.5 353.8 431 354.5 431 354.8C431 355 430.1 356.5 429 358C425.8 362.6 424 368.8 424 375.6C424 379.1 423.6 382 423.1 382C422.6 382 412.5 378.8 400.7 375C377.8 367.5 373.2 366.8 370 370C366.8 373.2 367.4 381.1 370.9 383C373.4 384.3 414.1 397.4 433.5 403.2C448.6 407.6 451.3 408.1 458 407.8C470.2 407.2 479.9 400.9 485.2 390.2C487.9 384.6 488.8 372.8 487 366.6C484.2 356.8 474.4 347.2 465 345.1C462.5 344.5 453 342.2 443.8 340C424.7 335.4 420.9 335.1 418 338ZM463.8 363C470.7 367.2 473.2 376.9 469 383.8C461.2 396.6 441 391.1 441 376.1C441 367.5 447.4 361 456 361C458.7 361 461.8 361.8 463.8 363Z" fill="currentColor"/>
<path d="M322 370C319.3 372.7 319.3 379.3 322 382C324.7 384.7 336.7 393.5 347.2 400.5L355.9 406.2L352.5 409.7C349.4 412.9 346.4 418.1 344.6 423.4C344.1 425 343.3 424.6 338.2 420.4C335.1 417.8 330.6 413.9 328.3 411.8C320.6 404.9 312 407.2 312 416.1C312 421 313 422 335 439.8C343 446.2 351.2 453.1 353.3 455.2C359.9 461.6 365.1 463.5 376 463.5C383.9 463.5 386.3 463.1 390.2 461.2C396.2 458.2 402.2 452.2 405.2 446.2C407.9 440.6 408.8 428.8 407 422.6C404.2 412.6 394.5 403.3 384.5 400.9C381.8 400.3 377.7 398.8 375.5 397.7C370 395 344.8 378.3 337.6 372.6C330.8 367.3 325.6 366.4 322 370ZM383.8 419C396.7 426.9 391.2 447 376.1 447C372.7 447 370.7 446.3 367.4 443.7C362.3 439.9 361 437.4 361 431.7C361 423.5 367.6 417 376 417C378.7 417 381.8 417.8 383.8 419Z" fill="currentColor"/>
</svg>