<svg xmlns="http://www.w3.org/2000/svg" fill="none" viewBox="0 0 351.78 496">
<path d="M15.0875 2.59999C9.1875 5.49999 4.3875 10.5 1.6875 16.6C-0.1125 20.7 -0.1125 27.9 0.0875 233.2L0.3875 445.7L3.3875 450.6C5.0875 453.3 8.5875 457.1 11.1875 459L15.8875 462.5V477.2C15.8875 490.7 16.0875 492.2 17.8875 494C19.7875 495.9 21.1875 496 63.8875 496C106.588 496 107.988 495.9 109.888 494C111.688 492.2 111.888 490.7 111.888 478V464H175.888H239.888V478C239.888 490.7 240.088 492.2 241.888 494C243.788 495.9 245.188 496 287.888 496C330.588 496 331.988 495.9 333.888 494C335.688 492.2 335.888 490.7 335.888 477.2V462.5L340.588 459C343.188 457.1 346.688 453.3 348.388 450.6L351.388 445.7L351.688 233.2C351.888 27.9 351.888 20.7 350.088 16.6C347.388 10.5 342.588 5.49999 336.688 2.59999L331.488 -7.39098e-06H175.888H20.2875L15.0875 2.59999ZM329.188 18.3C330.688 19.2 332.688 21.2 333.588 22.7C335.288 25.3 335.388 34.6 335.688 188.7L335.888 352H175.888H15.8875V190.7C15.8875 87.1 16.2875 28.2 16.8875 25.9C18.0875 21.8 21.3875 18.3 25.4875 17C27.0875 16.5 95.2875 16.2 177.388 16.3C317.988 16.5 326.588 16.6 329.188 18.3ZM335.688 403.3C335.388 442 335.388 441.6 329.188 445.7C326.588 447.4 318.088 447.5 175.888 447.5C33.6875 447.5 25.1875 447.4 22.5875 445.7C16.3875 441.6 16.3875 442 16.0875 403.3L15.7875 368H175.888H335.988L335.688 403.3ZM95.8875 472V480H63.8875H31.8875V472V464H63.8875H95.8875V472ZM319.888 472V480H287.888H255.888V472V464H287.888H319.888V472Z" fill="currentColor"/>
<path d="M33.8875 34C31.8875 36 31.8875 37.3 31.8875 124C31.8875 210.7 31.8875 212 33.8875 214C35.8875 216 37.1875 216 175.888 216C314.588 216 315.888 216 317.888 214C319.888 212 319.888 210.7 319.888 124C319.888 37.3 319.888 36 317.888 34C315.888 32 314.588 32 175.888 32C37.1875 32 35.8875 32 33.8875 34ZM303.888 124V200H175.888H47.8875V124V48H175.888H303.888V124Z" fill="currentColor"/>
<path d="M89.8875 250C87.9875 251.9 87.8875 253.3 87.8875 280C87.8875 306.7 87.9875 308.1 89.8875 310C91.8875 312 93.1875 312 175.887 312C258.587 312 259.887 312 261.887 310C263.787 308.1 263.887 306.7 263.887 280C263.887 253.3 263.787 251.9 261.887 250C259.887 248 258.587 248 175.887 248C93.1875 248 91.8875 248 89.8875 250ZM247.887 280V296H175.887H103.887V280V264H175.887H247.887V280Z" fill="currentColor"/>
<path d="M33.8875 386C31.9875 387.9 31.8875 389.3 31.8875 408C31.8875 426.7 31.9875 428.1 33.8875 430C35.7875 431.9 37.1875 432 55.8875 432C74.5875 432 75.9875 431.9 77.8875 430C79.7875 428.1 79.8875 426.7 79.8875 408C79.8875 389.3 79.7875 387.9 77.8875 386C75.9875 384.1 74.5875 384 55.8875 384C37.1875 384 35.7875 384.1 33.8875 386ZM63.8875 408V416H55.8875H47.8875V408V400H55.8875H63.8875V408Z" fill="currentColor"/>
<path d="M97.8875 386C95.9875 387.9 95.8875 389.3 95.8875 408C95.8875 426.7 95.9875 428.1 97.8875 430C99.7875 431.9 101.187 432 119.887 432C138.587 432 139.987 431.9 141.887 430C143.787 428.1 143.887 426.7 143.887 408C143.887 389.3 143.787 387.9 141.887 386C139.987 384.1 138.587 384 119.887 384C101.187 384 99.7875 384.1 97.8875 386ZM127.887 408V416H119.887H111.887V408V400H119.887H127.887V408Z" fill="currentColor"/>
</svg>