<svg xmlns="http://www.w3.org/2000/svg" fill="none" viewBox="0 0 512 511.22">
<path d="M36.5 1.12305C19.8 6.42305 6.8 20.023 1.6 37.623C0.2 42.623 0 63.023 0 255.723C0 448.423 0.2 468.823 1.6 473.823C6.1 489.023 16.1 501.023 29.7 507.523L37.5 511.223H256H474.5L482.3 507.523C495.9 501.023 505.9 489.023 510.4 473.823C511.8 468.823 512 448.423 512 255.723C512 63.023 511.8 42.623 510.4 37.623C505.9 22.423 495.9 10.423 482.3 3.92305L474.5 0.223045L257.5 0.0230454C84 -0.0769546 39.7 0.123045 36.5 1.12305ZM473.2 23.023C480.2 26.423 486.2 33.023 489.2 40.623L491.5 46.223V255.723V465.223L489.2 470.823C486.2 478.423 480.2 485.023 473.2 488.423L467.5 491.223H256H44.5L38.8 488.423C31.8 485.023 25.8 478.423 22.8 470.823L20.5 465.223V255.723V46.223L22.8 40.623C27 30.123 35.9 22.423 45.7 20.723C48.4 20.323 144.3 20.023 259 20.123L467.5 20.223L473.2 23.023Z" fill="currentColor"/>
<path d="M50.6 50.323L48 53.023V255.723V458.423L50.6 461.123L53.3 463.723H256H458.7L461.4 461.123L464 458.423V255.723V53.023L461.4 50.323L458.7 47.723H256H53.3L50.6 50.323ZM444 255.723V443.723H256H68V255.723V67.723H256H444V255.723Z" fill="currentColor"/>
<path d="M231.5 107.223C168 117.923 118.8 166.823 107.9 230.223C105.1 246.023 105.6 272.223 108.8 286.323C118.1 326.623 143.1 361.923 177.5 383.423C190.3 391.523 210.6 399.723 226.5 403.223C236.1 405.423 264.2 406.323 275.3 404.823C337.2 396.523 388.3 349.923 402.8 288.423C405.2 278.223 405.4 275.323 405.5 256.223C405.5 239.823 405.1 233.423 403.7 226.723C395.7 188.823 375.1 156.523 344.5 133.923C326.6 120.723 303 111.023 280 107.223C268.4 105.423 242.8 105.423 231.5 107.223ZM266 145.723V164.723H256H246V145.723V126.723H256H266V145.723ZM228.7 182.123L231.3 184.723H256H280.7L283.4 182.123L286 179.423V154.623C286 140.923 286.2 129.723 286.4 129.723C286.6 129.723 290.9 131.023 295.8 132.623C315.5 139.123 331.6 149.123 347.1 164.623C372.3 189.823 385 220.123 385 255.023C385 282.323 378.2 304.823 363.2 327.123C347.1 351.223 323.2 369.323 295.2 378.723L286.5 381.623L286.2 356.823L286 331.923L283.3 329.323L280.7 326.723H256H231.3L228.7 329.323L226 331.923L225.8 356.723L225.5 381.423L218.1 379.023C182 367.323 150 337.523 136.1 302.623C129.9 287.223 127.9 277.523 127.3 260.623C126.4 235.723 130.3 217.623 141.2 196.423C147.8 183.523 155.5 173.323 166.6 162.623C181.3 148.523 199.6 137.723 218 132.223L225.5 130.023L225.8 154.723L226 179.523L228.7 182.123ZM266 365.723V384.723H256H246V365.723V346.723H256H266V365.723Z" fill="currentColor"/>
<path d="M172.4 228.123C161.2 233.323 155 243.223 155 255.723C155 273.323 167.4 285.723 185 285.723C202.6 285.723 215 273.323 215 255.723C215 238.123 202.6 225.723 185 225.723C179.2 225.723 176.3 226.323 172.4 228.123ZM191.4 249.323C193.3 251.223 194 253.023 194 255.723C194 258.423 193.3 260.223 191.4 262.123C185.6 267.823 176 263.823 176 255.723C176 250.623 179.9 246.723 185 246.723C187.7 246.723 189.5 247.423 191.4 249.323Z" fill="currentColor"/>
<path d="M314.4 228.123C303.2 233.323 297 243.223 297 255.723C297 273.323 309.4 285.723 327 285.723C344.6 285.723 357 273.323 357 255.723C357 238.123 344.6 225.723 327 225.723C321.2 225.723 318.3 226.323 314.4 228.123ZM333.4 249.323C339.1 255.123 335.1 264.723 327 264.723C324.3 264.723 322.5 264.023 320.6 262.123C318.7 260.223 318 258.423 318 255.723C318 253.023 318.7 251.223 320.6 249.323C322.5 247.423 324.3 246.723 327 246.723C329.7 246.723 331.5 247.423 333.4 249.323Z" fill="currentColor"/>
</svg>