<svg xmlns="http://www.w3.org/2000/svg" fill="none" viewBox="0 0 505.88 512.05">
<path d="M82.2722 1.33923C77.7722 3.33923 72.0722 8.73923 69.5722 13.3392C67.4722 17.3392 67.3722 18.5392 67.0722 56.3392C66.7722 91.6392 66.6722 95.4392 65.0722 96.5392C63.6722 97.5392 62.8722 97.4392 60.3722 95.9392C51.2722 90.3392 46.8722 88.8392 39.8722 88.8392C31.5722 88.8392 25.7722 91.0392 20.7722 96.1392C18.8722 98.0392 13.5722 106.339 8.87221 114.539C0.772215 128.739 0.372214 129.639 0.0722143 136.539C-0.627786 148.739 3.67221 155.739 16.8722 163.739C20.6722 166.139 23.1722 168.339 22.9722 169.139C22.7722 169.839 22.5722 173.839 22.5722 177.939C22.4722 187.239 25.9722 195.639 32.1722 201.739C34.5722 203.939 48.0722 212.539 62.8722 221.139L89.3722 236.439H96.5722H103.672L137.772 293.639L171.772 350.839L170.272 354.539C166.172 364.239 169.472 377.839 177.672 384.939C191.172 396.939 210.672 392.939 220.372 376.339C222.872 372.139 223.172 371.939 224.272 373.639C224.972 374.639 242.772 405.339 263.872 441.939C284.972 478.539 302.872 509.239 303.672 510.139C306.072 513.039 312.272 512.539 314.772 509.339C315.972 507.839 316.872 505.939 316.872 505.039C316.872 503.839 241.072 371.039 232.472 357.039C232.272 356.739 254.372 317.739 281.772 270.439L331.472 184.439L417.272 183.939C500.672 183.439 503.072 183.339 504.472 181.539C506.572 178.639 506.272 173.339 503.872 170.939C501.872 168.939 500.572 168.939 421.372 168.939C377.072 168.939 340.872 168.739 340.872 168.539C340.872 168.339 342.272 165.239 344.072 161.839C346.772 156.439 347.272 154.339 347.272 148.439C347.272 132.339 336.472 121.439 320.372 121.539C311.672 121.539 305.572 124.239 299.972 130.539L296.072 134.939L236.272 133.939C203.272 133.439 173.372 132.939 169.672 132.939C163.172 132.939 162.972 132.839 162.372 130.139C161.172 124.439 156.372 120.539 136.972 109.339L117.872 98.4392V59.4392C117.872 34.8392 117.472 19.0392 116.772 16.5392C115.472 11.7392 108.572 4.23923 103.372 1.83923C98.5722 -0.360774 86.8722 -0.660774 82.2722 1.33923ZM99.9722 17.8392L102.872 20.7392V84.2392C102.872 145.839 102.772 147.739 100.872 150.139C96.1722 156.139 87.5722 155.839 83.7722 149.539C81.9722 146.539 81.8722 143.839 81.8722 84.4392C81.9722 34.9392 82.1722 21.9392 83.2722 20.0392C86.4722 14.2392 95.1722 13.1392 99.9722 17.8392ZM49.6722 107.139C52.5722 108.839 54.8722 110.639 54.6722 111.339C54.4722 112.039 48.9722 121.839 42.4722 133.239L30.5722 153.939L25.9722 151.339C23.4722 149.939 19.8722 147.239 18.1722 145.339C13.1722 140.139 13.5722 137.139 21.5722 123.139C30.3722 107.639 31.5722 105.939 35.2722 104.339C39.1722 102.639 42.9722 103.339 49.6722 107.139ZM134.072 125.339C140.472 129.039 146.272 132.739 146.872 133.539C148.172 135.039 148.072 135.239 111.572 198.439C104.172 211.239 97.5722 221.539 96.6722 221.739C95.1722 222.039 62.9722 204.039 48.3722 194.839C37.6722 188.139 34.6722 178.639 40.0722 168.339C41.4722 165.639 48.0722 154.039 54.6722 142.639L66.6722 121.739L67.0722 136.639C67.3722 149.439 67.6722 151.939 69.5722 155.539C71.8722 159.839 77.0722 164.939 81.6722 167.339C90.0722 171.739 101.872 169.739 109.572 162.639C117.072 155.739 117.872 153.139 117.872 133.039V115.739L120.172 117.139C121.372 117.939 127.672 121.639 134.072 125.339ZM325.672 137.839C330.472 140.339 333.272 145.039 332.572 149.439C332.072 152.739 208.472 367.839 204.172 373.039C201.572 376.039 196.472 377.639 192.872 376.439C186.172 374.339 181.272 365.839 183.872 360.839C184.572 359.539 213.472 309.239 248.172 249.039C313.672 135.539 313.472 135.939 319.672 135.939C320.872 135.939 323.572 136.839 325.672 137.839ZM220.572 148.839L242.672 149.439L200.072 223.239L157.572 296.939L135.872 260.739L114.172 224.439L116.772 219.839C118.172 217.339 128.172 200.139 138.872 181.639L158.372 147.939L178.372 148.039C189.372 148.139 208.372 148.439 220.572 148.839ZM278.972 149.839L287.472 150.439L234.672 241.839C205.672 292.139 181.472 333.739 181.072 334.139C180.572 334.639 177.172 329.939 173.472 323.739C167.072 313.139 166.772 312.339 168.072 309.739C168.772 308.239 189.872 271.539 214.872 228.039L260.372 149.039H265.372C268.172 149.139 274.272 149.439 278.972 149.839Z" fill="currentColor"/>
</svg>