<svg xmlns="http://www.w3.org/2000/svg" fill="none" viewBox="0 0 512 405.72">
<path d="M19 0.619476C11.6 2.91948 5 8.51948 1.9 15.2195C0.1 19.0195 0 25.6195 0 184.319V349.319L2.6 354.519C7.6 364.719 15.6 368.719 30.5 368.719H39.6L44.8 385.119C48.9 398.119 50.6 402.019 52.6 403.619C55.2 405.619 56.4 405.719 89.5 405.719C122.6 405.719 123.8 405.619 126.4 403.619C128.5 402.019 130.1 398.219 134.2 385.119L139.4 368.719H256H372.6L377.8 385.119C381.9 398.119 383.6 402.019 385.6 403.619C388.2 405.619 389.4 405.719 422.5 405.719C455.6 405.719 456.8 405.619 459.4 403.619C461.5 402.019 463.1 398.219 467.2 385.119L472.4 368.719H481.5C496.4 368.719 504.4 364.619 509.4 354.519L512 349.319V184.319C512 25.6195 511.9 19.0195 510.1 15.2195C507.8 10.3195 502.9 5.21948 497.6 2.41948L493.5 0.219476L257.5 0.0194764C127.7 -0.0805236 20.4 0.219476 19 0.619476ZM489.4 17.7195C490.8 18.2195 492.7 19.8195 493.7 21.4195C495.4 24.0195 495.5 31.8195 495.8 180.719C496 266.819 495.8 339.219 495.5 341.619C495 344.619 493.9 347.019 492 348.919L489.2 351.719H256H22.8L20 348.919C18.1 347.019 17 344.619 16.5 341.619C16.2 339.219 16 266.819 16.2 180.719C16.5 31.6195 16.6 24.0195 18.3 21.4195C19.3 19.8195 21.1 18.2195 22.3 17.7195C25.4 16.5195 486.1 16.4195 489.4 17.7195ZM121 369.419C121 369.919 119.6 374.419 117.9 379.419L114.8 388.719H89.5H64.2L61.1 379.419C59.4 374.419 58 369.919 58 369.419C58 369.019 72.2 368.719 89.5 368.719C106.8 368.719 121 369.019 121 369.419ZM454 369.419C454 369.919 452.6 374.419 450.9 379.419L447.8 388.719H422.5H397.2L394.1 379.419C392.4 374.419 391 369.919 391 369.419C391 369.019 405.2 368.719 422.5 368.719C439.8 368.719 454 369.019 454 369.419Z" fill="currentColor"/>
<path d="M49.1 50.3195C47 52.9195 47 53.7195 47 115.919V178.819L49.5 181.219L51.9 183.719H181.4C252.6 183.719 311.6 183.419 312.5 183.119C316.9 181.419 317 180.319 317 115.719C317 51.1195 316.9 50.0195 312.5 48.3195C311.6 48.0195 252.4 47.7195 181 47.7195H51.1L49.1 50.3195ZM300 115.719V166.719H269.6H239.1L236 160.319C231.2 150.219 221.7 139.619 213.4 134.919C212.2 134.219 214.8 129.319 226 111.119C233.8 98.5195 240.4 86.8195 240.7 85.2195C241.3 81.5195 238.3 77.2195 234.4 76.3195C228.6 74.8195 227 76.6195 210.9 102.819C197.4 124.619 195.3 127.619 193.5 127.019C192.4 126.619 187 126.419 181.5 126.419C173.1 126.419 170.1 126.919 162.9 129.419C147.4 134.719 135.3 145.119 128.4 159.219L124.7 166.719H94.3H64V115.719V64.7195H182H300V115.719ZM184.5 143.719C184.8 144.219 182.1 149.619 178.3 155.719L171.5 166.719H157.8C150.2 166.719 144 166.419 144 166.019C144 165.719 145.8 163.019 148 160.119C154.1 152.019 162.9 146.519 173.4 144.219C181 142.519 183.7 142.419 184.5 143.719ZM213.1 157.419C215.7 160.119 218.3 163.319 218.9 164.519L220.1 166.719H206H191.8L194.1 162.919C195.4 160.919 197.9 156.819 199.8 153.919L203.1 148.619L205.8 150.619C207.3 151.619 210.6 154.719 213.1 157.419Z" fill="currentColor"/>
<path d="M354.1 50.3194C351.3 53.8194 351.5 58.0194 354.4 61.4194L356.8 64.2194L408.2 64.5194C444 64.7194 460.7 64.5194 463.3 63.7194C466.2 62.8194 467.5 61.8194 468.6 59.2194C470.2 55.3194 469 50.3194 466 48.7194C464.8 48.1194 443.4 47.7194 410.1 47.7194H356.1L354.1 50.3194Z" fill="currentColor"/>
<path d="M354.1 90.3195C352.9 91.8195 352 94.2195 352 95.7195C352 97.2195 352.9 99.6195 354.1 101.119L356.1 103.719H410.1C443.4 103.719 464.8 103.319 466 102.719C470.3 100.419 470.3 91.0195 466 88.7195C464.8 88.1195 443.4 87.7195 410.1 87.7195H356.1L354.1 90.3195Z" fill="currentColor"/>
<path d="M358.3 127.419C355.3 128.019 352 132.319 352 135.719C352 137.219 352.9 139.619 354.1 141.119L356.1 143.719H410.1C443.4 143.719 464.8 143.319 466 142.719C468.7 141.219 470.1 136.319 468.8 132.619C466.8 126.719 466.3 126.719 410.8 126.819C383.1 126.919 359.5 127.219 358.3 127.419Z" fill="currentColor"/>
<path d="M358.3 167.419C355.3 168.019 352 172.319 352 175.719C352 177.219 352.9 179.619 354.1 181.119L356.1 183.719H410.1C443.4 183.719 464.8 183.319 466 182.719C468.7 181.219 470.1 176.319 468.8 172.619C466.8 166.719 466.3 166.719 410.8 166.819C383.1 166.919 359.5 167.219 358.3 167.419Z" fill="currentColor"/>
<path d="M70.5 248.019C61.1 251.219 53.7 257.619 49.8 266.219C47 272.419 46.7 286.019 49.3 291.719C55.2 304.819 66.2 312.019 80.5 311.919C109 311.719 122.9 278.319 103.4 256.719C96.1 248.719 80.8 244.619 70.5 248.019ZM86.6 265.719C96.4 270.519 98.3 282.619 90.6 290.319C84.4 296.519 75.7 296.619 69.3 290.419C61.5 283.019 63.2 270.819 72.7 265.819C77.6 263.219 81.3 263.219 86.6 265.719Z" fill="currentColor"/>
<path d="M151.4 247.619C145.5 249.119 137.6 254.219 133.9 258.919C128.6 265.719 126.7 272.219 127.2 281.619C127.8 291.119 130.9 297.619 138 304.019C144.3 309.619 150.1 311.719 159.9 311.719C169.7 311.719 177.6 308.219 183.8 301.219C195.1 288.419 194.6 268.319 182.7 256.419C175.3 249.019 161.2 245.019 151.4 247.619ZM167.9 266.419C174.6 271.419 176.8 279.219 173.3 286.419C168.5 296.519 153.5 297.819 147 288.719C144.6 285.319 143.4 279.219 144.4 275.319C145.2 271.919 149.8 266.719 153.5 265.119C157.4 263.319 164.5 263.919 167.9 266.419Z" fill="currentColor"/>
<path d="M229.2 248.119C206 255.719 198.7 285.419 215.9 302.619C223 309.719 227 311.219 239 311.219C248.8 311.219 249.9 311.019 254.8 308.319C261.3 304.719 265.5 300.119 268.9 292.719C272.7 284.719 272.6 273.519 268.7 265.619C265.5 258.919 258.7 252.419 252.2 249.419C246.3 246.819 235.1 246.219 229.2 248.119ZM246.1 265.719C255.6 270.619 257.6 282.919 250.1 290.119C241.9 298.019 230.5 296.019 225.2 285.619C221.4 278.219 224.4 269.719 232.3 265.819C237.6 263.219 241 263.219 246.1 265.719Z" fill="currentColor"/>
<path d="M327.5 249.219L325 251.619V279.119V306.619L327.4 309.419L329.8 312.219L394.7 312.519C440.3 312.719 460.6 312.519 463.3 311.719C469.7 309.819 470.1 307.719 469.8 277.519L469.5 251.519L466.7 249.119L463.9 246.719H396.9H329.9L327.5 249.219ZM453 279.719V295.719H397.5H342V279.719V263.719H397.5H453V279.719Z" fill="currentColor"/>
</svg>