<svg xmlns="http://www.w3.org/2000/svg" fill="none" viewBox="0 0 480 479.43">
<path d="M19.2 2.03261C12.1 4.83261 4.8 12.1326 2.1 19.4326L0 25.0326V207.933C0 390.233 0 390.833 2.1 396.333C4.6 403.033 10.7 409.633 17.5 412.933L22.5 415.433L67.4 415.933L112.3 416.433L113.5 420.633C116.4 430.433 124.7 439.733 135 444.633C139.4 446.733 142.5 447.433 150.4 447.833L160.3 448.433L161.5 452.633C164.4 462.433 172.6 471.633 183 476.733L188.5 479.433H304H419.5L425.5 476.533C428.8 474.833 433.8 471.233 436.6 468.533C439.3 465.733 442.9 460.733 444.6 457.433L447.5 451.433L447.8 349.233C448 250.233 448.1 247.033 449.9 246.433C454.4 245.033 459.9 239.833 462.5 234.633C465 229.333 465.2 227.833 467.6 191.333C468.9 170.433 470 153.133 470 152.633C470 152.233 472.3 151.933 475 151.933H480V143.933V135.933H475.6H471.1L471.7 122.033C472.3 108.833 472.2 108.133 470.1 106.033C469 104.933 467.1 103.933 466 103.933C464 103.933 464 103.233 464 76.6326C464 46.3326 463.7 44.6326 456.9 38.2326C452.2 33.8326 447.2 31.9326 440 31.9326C432.8 31.9326 427.8 33.8326 423.1 38.2326C416.3 44.6326 416 46.3326 416 76.6326C416 103.233 416 103.933 414 103.933C412.9 103.933 411 104.933 409.9 106.033C407.8 108.133 407.7 108.833 408.3 122.033L408.9 135.933H404.4H400V143.933V151.933H405C407.8 151.933 410 152.233 410 152.633C410 153.133 411.1 170.433 412.4 191.333C414.8 227.833 415 229.333 417.5 234.633C420.1 239.833 425.6 245.033 430.1 246.433C432 247.033 432.1 249.133 431.8 345.733C431.5 443.433 431.5 444.433 429.4 448.933C426.9 454.333 420.7 460.233 415.4 462.033C409.6 464.133 198.4 464.133 192.6 462.033C188.1 460.433 181.5 454.833 179.4 450.833L178 448.033L250.7 447.733L323.5 447.433L329.5 444.533C337.2 440.733 344.8 433.133 348.6 425.433L351.5 419.433L351.8 333.233C352 249.933 352.1 247.033 353.9 246.433C358.4 245.033 363.9 239.833 366.5 234.633C369 229.333 369.2 227.833 371.6 191.333C372.9 170.433 374 153.133 374 152.633C374 152.233 376.3 151.933 379 151.933H384V143.933V135.933H379.6H375.1L375.7 122.033C376.3 108.833 376.2 108.133 374.1 106.033C373 104.933 371.1 103.933 370 103.933C368 103.933 368 103.233 368 76.6326C368 46.3326 367.7 44.6326 360.9 38.2326C356.2 33.8326 351.2 31.9326 344 31.9326C336.8 31.9326 331.8 33.8326 327.1 38.2326C320.3 44.6326 320 46.3326 320 76.6326C320 103.233 320 103.933 318 103.933C316.9 103.933 315 104.933 313.9 106.033C311.8 108.133 311.7 108.833 312.3 122.033L312.9 135.933H308.4H304V143.933V151.933H309C311.8 151.933 314 152.233 314 152.633C314 153.133 315.1 170.433 316.4 191.333C318.8 227.833 319 229.333 321.5 234.633C324.1 239.833 329.6 245.033 334.1 246.433C336 247.033 336.1 248.833 335.8 329.733C335.5 411.633 335.5 412.433 333.4 416.933C330.8 422.333 325.9 427.233 320.5 429.633C316.8 431.333 311.4 431.433 246.3 431.733L176 432.033V423.933V415.933H219.5C260.9 415.933 263.2 415.833 268.4 413.833C275.1 411.333 281.7 405.233 285 398.433L287.5 393.433L287.8 209.233L288 25.0326L285.9 19.4326C283.1 12.0326 276 4.83261 268.5 2.03261C263 -0.06739 262.2 -0.06739 143.7 0.03261C26.4 0.03261 24.4 0.03261 19.2 2.03261ZM262.9 18.4326C267.3 21.0326 269.9 24.6326 271 29.5326C272.3 34.7326 272.3 381.133 271 386.333C269.9 391.233 267.3 394.833 262.9 397.433C259.6 399.433 257.7 399.433 144 399.433C29.3 399.433 28.5 399.433 25 397.333C20.2 394.533 17.2 389.833 16.5 383.633C16.2 380.733 16 299.633 16.2 203.433C16.5 30.5326 16.5 28.4326 18.5 25.0326C21 20.8326 24.7 17.9326 29.1 16.9326C31 16.4326 83.6 16.2326 146 16.2326C257.6 16.4326 259.6 16.4326 262.9 18.4326ZM348 49.9326C351.4 51.7326 352 56.4326 352 80.5326V103.933H344H336V80.5326C336 56.9326 336.5 52.6326 339.7 50.1326C341.7 48.7326 345.4 48.5326 348 49.9326ZM444 49.9326C447.4 51.7326 448 56.4326 448 80.5326V103.933H440H432V80.5326C432 56.9326 432.5 52.6326 435.7 50.1326C437.7 48.7326 441.4 48.5326 444 49.9326ZM358.6 125.133C358.3 128.033 358 131.633 358 133.133V135.933H344H330V133.133C330 131.633 329.7 128.033 329.4 125.133L328.7 119.933H344H359.3L358.6 125.133ZM454.6 125.133C454.3 128.033 454 131.633 454 133.133V135.933H440H426V133.133C426 131.633 425.7 128.033 425.4 125.133L424.7 119.933H440H455.3L454.6 125.133ZM356.5 160.633C356.1 165.533 355 182.133 354.1 197.733C352.4 224.733 352.2 226.033 350 228.433C346.8 231.833 341.2 231.833 338 228.433C335.8 226.033 335.6 224.733 333.4 189.733C332.1 169.733 331 153.133 331 152.633C331 152.233 336.9 151.933 344 151.933H357.1L356.5 160.633ZM452.5 160.633C452.1 165.533 451 182.133 450.1 197.733C448.4 224.733 448.2 226.033 446 228.433C442.8 231.833 437.2 231.833 434 228.433C431.8 226.033 431.6 224.733 429.4 189.733C428.1 169.733 427 153.133 427 152.633C427 152.233 432.9 151.933 440 151.933H453.1L452.5 160.633ZM160 424.033V432.233L153.4 431.533C149.7 431.133 145.1 430.133 143.1 429.333C138.9 427.633 133.5 422.633 131.4 418.633L129.9 415.933H145H160V424.033Z" fill="currentColor"/>
<path d="M34 33.9326C32.1 35.8326 32 37.2326 32 87.9326C32 138.633 32.1 140.033 34 141.933C36 143.933 37.3 143.933 144 143.933C250.7 143.933 252 143.933 254 141.933C255.9 140.033 256 138.633 256 87.9326C256 37.2326 255.9 35.8326 254 33.9326C252 31.9326 250.7 31.9326 144 31.9326C37.3 31.9326 36 31.9326 34 33.9326ZM240 87.9326C240 125.933 239.9 127.933 238.2 127.933C237.2 127.933 234.6 126.433 232.4 124.533C223.3 116.833 205.8 107.033 195.1 103.833C192.8 103.133 191 102.333 191 102.033C191 101.733 196.3 96.1326 202.7 89.7326L214.5 77.9326L208.2 71.7326L202 65.4326L185.8 81.5326L169.5 97.6326L164 96.7326C154.5 95.1326 120.8 96.4326 110.5 98.8326C87.9 104.133 69.8 112.633 55.6 124.633C53.4 126.433 50.8 127.933 49.8 127.933C48.1 127.933 48 125.933 48 87.9326V47.9326H144H240V87.9326ZM150.3 112.933H154.4L147 120.433L139.6 127.933H110.5L81.5 127.833L87.2 124.933C94.2 121.233 105.4 117.433 115.2 115.333C122.5 113.833 142.3 111.933 144.8 112.533C145.6 112.733 148 112.933 150.3 112.933ZM185.8 118.833C190.8 120.533 197.5 123.133 200.7 124.833L206.5 127.833L185.5 127.933H164.6L170.5 121.933C173.8 118.633 176.5 115.933 176.6 115.933C176.7 115.933 180.9 117.233 185.8 118.833Z" fill="currentColor"/>
<path d="M136 167.933V175.933H144H152V167.933V159.933H144H136V167.933Z" fill="currentColor"/>
<path d="M96 172.033C92.5 174.133 89.4 176.233 89.2 176.833C88.8 177.933 96.1 190.933 97.1 190.933C98.5 190.933 111 183.433 111 182.533C111 181.333 104.2 169.133 103.2 168.633C102.8 168.433 99.6 169.933 96 172.033Z" fill="currentColor"/>
<path d="M183 171.233C179.4 177.133 176.6 182.833 177 183.233C178.2 184.233 190.2 190.933 190.8 190.933C191.7 190.933 199 178.533 199 177.033C199 176.533 195.8 174.233 192 172.033L184.9 168.033L183 171.233Z" fill="currentColor"/>
<path d="M133.5 193.833C131.3 194.833 127.6 197.733 125.2 200.333C122.8 202.833 120.4 204.933 119.9 204.933C118.1 204.933 108.1 211.833 104 215.933C85.8001 234.133 82.6001 264.733 96.5001 286.433C98.4001 289.433 101.8 293.733 104 295.933C108.1 300.033 118.1 306.933 119.9 306.933C120.4 306.933 122.8 309.033 125.2 311.533C130.9 317.733 135.8 319.933 144 319.933C152.2 319.933 157.1 317.733 162.8 311.533C165.2 309.033 167.6 306.933 168.1 306.933C169.9 306.933 179.9 300.033 184 295.933C202.2 277.733 205.4 247.133 191.5 225.433C189.6 222.433 186.2 218.133 184 215.933C180 211.933 168.6 203.933 166.8 203.933C166.4 203.933 164.3 202.033 162.2 199.733C160.2 197.533 156.7 194.833 154.5 193.833C149.1 191.333 138.8 191.333 133.5 193.833ZM148 209.933C151.6 211.833 152 216.033 152 256.133C152 287.633 151.7 295.633 150.6 298.433C149 302.133 145.8 303.633 141.4 302.533C136.3 301.233 136 298.633 136 256.033C136 216.633 136.3 212.733 139.7 210.133C141.7 208.733 145.4 208.533 148 209.933ZM120 256.133L119.9 287.433L115.3 282.433C112.8 279.633 109.5 274.933 108.1 271.933C105.8 267.133 105.5 265.133 105.5 255.933C105.5 246.733 105.8 244.733 108.1 239.933C110.3 235.333 118.2 224.933 119.6 224.933C119.8 224.933 120 239.033 120 256.133ZM179.9 239.933C182.2 244.733 182.5 246.733 182.5 255.933C182.5 265.133 182.2 267.133 179.9 271.933C178.5 274.933 175.2 279.633 172.7 282.433L168.1 287.433V255.933V224.433L172.7 229.433C175.2 232.133 178.5 236.933 179.9 239.933Z" fill="currentColor"/>
<path d="M60.1 207.933L56.1 215.033L59.3 216.933C65.2 220.533 70.9 223.333 71.3 222.933C72.3 221.733 79 209.733 79 209.133C79 208.233 66.6 200.933 65.1 200.933C64.6 200.933 62.3 204.133 60.1 207.933Z" fill="currentColor"/>
<path d="M215.3 204.733C211.8 206.733 209 208.733 209 209.133C209 209.733 215.6 221.633 216.7 222.833C217.1 223.433 222.9 220.633 227.9 217.433L231.9 214.933L227.9 207.933C225.6 204.133 223.3 200.933 222.7 200.933C222 201.033 218.7 202.633 215.3 204.733Z" fill="currentColor"/>
<path d="M48 255.933V263.933H56H64V255.933V247.933H56H48V255.933Z" fill="currentColor"/>
<path d="M224 255.933V263.933H232H240V255.933V247.933H232H224V255.933Z" fill="currentColor"/>
<path d="M61.5 337.833C52.8 341.833 48 349.833 48 360.133C48 367.533 50.3 373.033 55.1 377.633C62.1 384.233 57.9 383.933 144.2 383.933C218.3 383.933 222.7 383.833 226.5 382.033C235.1 378.033 240 370.033 240 359.933C240 349.833 235.1 341.833 226.5 337.833C222.7 336.033 218.4 335.933 144 335.933C69.6 335.933 65.3 336.033 61.5 337.833ZM218.5 353.333C224.6 355.933 224.6 363.933 218.5 366.533C213.4 368.633 74.6 368.633 69.5 366.533C63.5 364.033 63.4 355.933 69.3 353.433C74.1 351.333 213.5 351.233 218.5 353.333Z" fill="currentColor"/>
</svg>