<svg xmlns="http://www.w3.org/2000/svg" fill="none" viewBox="0 0 469.5 441.62">
<path d="M119.3 1.05092C112.5 3.65092 106.3 7.95092 103.2 12.3509C101.4 14.8509 92.9 34.5509 83.4 58.0509L66.9 99.2509L49.9 99.8509C35.7 100.251 32.1 100.751 27.5 102.551C16.5 106.951 6.8 116.651 2.2 127.751L0 133.251V270.751V408.251L2.2 413.751C6.8 424.851 16.2 434.251 27.4 438.951L33 441.251L220 441.551C356.4 441.751 408.6 441.551 413 440.751C429.9 437.551 444.3 422.951 447.5 405.851C448 402.951 448.5 388.151 448.5 373.151V345.951L451.8 345.251C458.8 343.651 464.5 339.051 467.6 332.251C469.3 328.551 469.5 324.351 469.5 270.651V213.151L466.9 207.851C464 202.051 457.8 197.251 451.8 196.151L448.5 195.551V168.251C448.5 153.251 448 138.651 447.5 135.751C445.3 123.951 438.5 113.651 428.9 107.251C419.4 100.951 413.9 99.7509 393.8 99.7509H376.3L257.2 50.0509C140.8 1.6509 137.8 0.450921 130.5 0.0509212C125.8 -0.149079 121.7 0.250921 119.3 1.05092ZM224.8 61.0509L316.6 99.2509L292.8 99.5509L269.1 99.7509L204.2 78.1509C135.3 55.1509 135.7 55.2509 130.9 59.8509C129.6 61.0509 125.5 70.0509 121.4 80.8509L114.1 99.7509H102.8C96.6 99.7509 91.5 99.4509 91.5 98.9509C91.6 98.5509 98.2 81.8509 106.3 61.7509C120.5 26.6509 121.1 25.1509 124.5 23.4509C126.6 22.4509 129 21.9509 130.5 22.2509C131.9 22.6509 174.3 40.0509 224.8 61.0509ZM172 91.1509L197 99.5509L167.7 99.6509C151.5 99.7509 138.5 99.3509 138.7 98.9509C138.9 98.5509 140.3 94.7509 141.9 90.4509C143.5 86.2509 145.3 82.7509 145.9 82.7509C146.5 82.7509 158.3 86.5509 172 91.1509ZM414.6 124.951C420.4 128.351 424.2 133.851 425.5 140.651C426 143.651 426.5 157.251 426.5 170.851V195.751H373.8C325.1 195.751 320.4 195.951 313 197.651C290.6 203.051 273.5 216.751 263.5 237.151C257.1 250.251 255 260.151 255.8 274.751C257.4 306.851 277.4 332.351 309 342.851C315.9 345.151 316.6 345.151 371.3 345.551L426.7 345.851L426.3 374.051C426 400.651 425.8 402.451 423.8 406.351C422.6 408.551 420.2 411.851 418.4 413.551C411.6 420.151 423.7 419.751 221.4 419.551L37.8 419.251L32.9 416.251C29.9 414.351 26.9 411.351 25 408.351L22 403.451V270.851V138.251L24.2 134.251C26.9 129.151 29.9 126.351 35.5 123.851C40 121.751 40.5 121.751 225 122.051L410 122.251L414.6 124.951ZM405.3 218.451L447.5 219.051V271.451V323.751H387.3C338.7 323.751 325.7 323.451 320.2 322.251C299.5 317.851 283.3 301.751 279 281.251C277 271.851 277.1 267.551 279.5 258.351C282.2 247.851 285.8 241.451 293.6 233.651C300.9 226.351 311.1 220.551 320 218.951C326.3 217.751 351.8 217.551 405.3 218.451Z" fill="currentColor"/>
<path d="M68.6 165.151C65.4 166.951 63.6 170.451 63.5 175.051C63.5 178.151 64.2 179.651 66.9 182.351L70.3 185.751H94.8C108.4 185.751 120.5 185.351 121.9 184.751C128.9 182.151 130.3 171.651 124.5 166.451L121.5 163.751H96.2C77.2 163.851 70.4 164.151 68.6 165.151Z" fill="currentColor"/>
<path d="M70.9001 206.851C66.5001 208.051 64.3001 210.951 63.8001 216.151C63.2001 221.451 64.9001 224.851 69.5001 227.251C72.1001 228.651 78.6001 228.751 118.6 228.551L164.7 228.251L167.6 224.951C173.3 218.651 170.7 209.051 162.7 206.751C158.1 205.551 75.3001 205.551 70.9001 206.851Z" fill="currentColor"/>
<path d="M324.4 238.751C315.1 240.351 305.9 247.251 301.4 255.951C298 262.451 297.6 275.351 300.5 282.951C303 289.751 309.3 296.451 316.2 299.951C320.2 301.851 322.6 302.251 330.5 302.251C341.6 302.251 346.7 300.351 353.4 293.651C359.3 287.751 361.9 281.651 362.3 272.751C362.8 263.551 361.5 258.451 357.2 252.151C350.1 241.951 337.2 236.651 324.4 238.751ZM336.1 262.551C338.9 264.751 340.5 267.951 340.5 271.251C340.5 274.851 334.6 280.751 331.1 280.751C323.1 280.751 318.1 272.751 321.9 265.851C324.6 260.951 332.1 259.251 336.1 262.551Z" fill="currentColor"/>
</svg>