<svg xmlns="http://www.w3.org/2000/svg" fill="none" viewBox="0 0 511.88 272.01">
<path d="M78.282 1.4083C73.582 3.5083 67.782 9.1083 65.782 13.5083C61.582 22.8083 64.782 36.8083 72.482 42.6083C78.682 47.4083 83.082 48.0083 110.882 48.0083H136.482L136.082 54.5083C135.682 60.0083 136.082 61.8083 138.282 66.4083L140.882 71.7083L138.382 77.1083C134.982 84.4083 134.982 91.9083 138.382 98.7083L140.882 103.708L138.382 109.108C134.982 116.408 134.982 123.808 138.382 130.708L140.882 135.708L138.382 141.108C135.082 148.308 135.082 155.608 138.382 162.908L140.882 168.308L138.282 173.608C136.082 178.208 135.682 180.008 136.082 185.508C136.282 189.608 136.082 192.008 135.382 192.008C134.882 192.008 130.382 191.108 125.382 190.108C106.182 186.108 90.782 177.908 76.582 164.108C59.282 147.308 49.882 126.908 47.982 102.008C46.882 88.2083 45.082 83.2083 39.282 78.2083C29.882 69.9083 16.882 69.9083 7.38197 78.2083C0.581966 84.2083 -0.518034 88.3083 0.181966 104.808C1.08197 125.408 4.88197 140.008 14.382 159.508C26.782 185.108 45.982 205.708 71.082 220.608C76.182 223.608 79.582 226.008 78.682 226.008C77.882 226.008 75.282 227.408 72.982 229.108C64.682 235.008 61.382 248.808 65.782 258.608C67.982 263.508 74.982 269.708 79.782 271.008C82.082 271.608 156.182 272.008 288.882 272.008C485.482 272.008 494.582 271.908 498.382 270.108C503.382 267.908 509.282 261.508 510.882 256.508C511.582 254.408 511.882 249.808 511.682 246.008C511.282 237.608 507.882 232.208 500.482 227.508L495.582 224.508L467.482 224.208L439.382 223.908L439.682 217.508C439.982 212.208 439.582 210.008 437.482 205.508L434.982 199.908L437.382 195.308C440.782 189.008 440.782 180.508 437.382 173.208L434.982 168.008L437.382 163.308C440.882 156.908 440.882 147.708 437.382 140.908L434.982 136.008L437.382 131.308C440.882 124.808 440.882 115.208 437.382 108.608L434.882 104.008L437.182 99.7083C438.682 96.9083 439.482 93.3083 439.682 88.5083C439.982 82.5083 439.682 80.8083 437.482 76.8083L434.982 72.1083L437.482 66.5083C439.582 62.0083 439.982 59.8083 439.682 54.5083L439.382 48.0083H464.982C493.282 48.0083 497.582 47.3083 504.082 42.0083C509.382 37.7083 511.882 31.7083 511.882 23.9083C511.882 16.4083 509.682 11.0083 504.782 6.3083C497.582 -0.491703 515.482 0.00829673 287.682 0.00829673C117.482 0.108297 80.882 0.308297 78.282 1.4083ZM493.582 18.2083C496.482 20.9083 496.582 25.9083 493.982 29.1083L492.082 31.5083L290.182 31.8083C179.182 31.9083 87.382 31.8083 86.082 31.5083C79.782 30.0083 77.682 21.9083 82.482 18.1083L85.182 16.0083H288.182H491.282L493.582 18.2083ZM421.382 50.5083C424.382 53.4083 424.582 57.9083 421.982 61.1083C420.082 63.5083 419.782 63.5083 396.082 64.0083C378.682 64.4083 371.782 64.8083 370.582 65.8083C366.782 69.0083 367.882 76.8083 372.482 78.9083C374.082 79.6083 382.782 80.0083 396.982 80.0083H418.982L421.382 82.5083C424.382 85.4083 424.582 89.9083 421.982 93.1083L420.082 95.5083L290.182 95.8083C218.782 95.9083 159.382 95.8083 158.082 95.5083C151.982 94.0083 149.882 86.9083 154.382 82.5083L156.782 80.0083H251.882H346.982L349.382 77.5083C352.582 74.4083 352.682 69.5083 349.682 66.3083L347.582 64.0083H253.182C172.282 64.0083 158.382 63.8083 155.982 62.5083C151.182 60.1083 150.382 54.4083 154.382 50.5083L156.782 48.0083H287.882H418.982L421.382 50.5083ZM28.382 90.3083C30.882 92.4083 31.182 93.4083 31.882 103.508C33.182 120.408 36.082 131.408 43.182 145.508C48.982 157.208 54.182 164.408 63.782 174.308C81.182 192.108 101.782 202.808 126.382 206.708L136.382 208.208V216.208V224.108L130.382 223.508C79.582 217.808 36.682 182.608 21.482 134.208C17.982 122.908 15.882 110.508 15.882 100.408C15.882 92.7083 16.082 92.0083 18.482 90.1083C21.982 87.4083 25.082 87.4083 28.382 90.3083ZM421.382 114.508C424.682 117.708 424.682 122.308 421.382 125.508L418.982 128.008H287.882H156.782L154.382 125.508C152.782 124.008 151.882 121.908 151.882 120.008C151.882 118.108 152.782 116.008 154.382 114.508L156.782 112.008H287.882H418.982L421.382 114.508ZM421.382 146.508C424.682 149.708 424.682 154.308 421.382 157.508L418.982 160.008H287.882H156.782L154.382 157.508C152.782 156.008 151.882 153.908 151.882 152.008C151.882 150.108 152.782 148.008 154.382 146.508L156.782 144.008H287.882H418.982L421.382 146.508ZM421.382 178.508C424.682 181.708 424.682 186.308 421.382 189.508L418.982 192.008H303.882H188.782L186.382 194.508C183.082 197.708 182.982 202.808 186.182 205.808L188.482 208.008L304.282 208.208L420.082 208.508L421.982 210.908C424.582 214.108 424.382 218.608 421.382 221.508L418.982 224.008H287.882H156.782L154.382 221.508C149.682 216.908 152.082 209.808 158.582 208.508C166.182 206.908 169.482 202.108 166.682 196.408C165.682 194.108 164.282 193.208 160.382 192.308C157.582 191.608 154.582 190.108 153.682 188.908C150.482 185.108 151.882 178.808 156.182 177.008C157.382 176.508 216.082 176.108 288.682 176.108L418.982 176.008L421.382 178.508ZM493.982 242.908C496.482 246.008 496.382 250.808 493.682 253.708L491.582 256.008H288.382H85.182L82.482 253.908C78.182 250.508 79.082 244.008 84.382 241.208C85.782 240.408 143.382 240.108 289.182 240.308L492.082 240.508L493.982 242.908Z" fill="currentColor"/>
</svg>